<svg width="52" height="69" viewBox="0 0 52 69" fill="none" xmlns="http://www.w3.org/2000/svg">
<path d="M32.0205 66.3262C32.0205 67.4358 31.109 68.3076 30.0391 68.3076H22.0342C20.9246 68.3076 20.0528 67.3961 20.0527 66.3262V56.0615H32.0205V66.3262ZM49.9727 0C51.0427 0 51.9541 0.871813 51.9541 1.98145V49.9727C51.9541 51.0427 51.0823 51.9541 49.9727 51.9541H1.98145C0.911462 51.9541 0 51.0823 0 49.9727V1.98145C0 0.911457 0.911462 2.52963e-05 1.98145 0H49.9727ZM16.0498 12.127C14.9799 12.1271 14.0684 13.0385 14.0684 14.1084C14.0685 15.1782 14.9404 16.0897 16.0498 16.0898H20.0527V20.29C15.4953 21.2015 12.0479 25.2443 12.0479 30.0791C12.048 35.5875 16.5257 40.0654 22.0342 40.0654C26.8689 40.0654 30.9107 36.6178 31.8223 32.0605H32.0205V38.0439C32.0205 39.1138 32.8925 40.0262 34.002 40.0264H37.9648C39.0348 40.0264 39.9463 39.1139 39.9463 38.0439C39.946 36.9742 39.0743 36.0625 37.9648 36.0625H35.9834V30.0791C35.9834 29.0091 35.1116 28.0977 34.002 28.0977H24.0156V14.1084C24.0156 13.0384 23.1438 12.127 22.0342 12.127H16.0498ZM20.0127 30C20.0129 31.0697 20.8848 31.9812 21.9941 31.9814H27.6611C27.6565 31.9946 27.6512 32.0074 27.6465 32.0205H27.6611C26.8289 34.3587 24.6097 36.0234 21.9941 36.0234C18.705 36.0232 16.0107 33.3282 16.0107 30.0391V30C16.0107 27.3846 17.6748 25.1654 20.0127 24.333V30Z" fill="url(#paint0_linear_20_132)"/>
<defs>
<linearGradient id="paint0_linear_20_132" x1="0" y1="34.1538" x2="51.9541" y2="34.1538" gradientUnits="userSpaceOnUse">
<stop stop-color="#BA916C"/>
<stop offset="1" stop-color="#572A00"/>
</linearGradient>
</defs>
</svg>
