<svg width="54" height="52" viewBox="0 0 54 52" fill="none" xmlns="http://www.w3.org/2000/svg">
<path d="M12.536 37.4562C10.2814 35.9938 8.32522 34.332 6.6011 32.3379C3.15286 28.3497 0.997711 23.73 0.301433 18.4788C0.135652 17.3156 0.0693395 16.1191 0.00302724 14.9559C-0.063285 13.3273 0.964555 12.2971 2.62236 12.2971C18.8026 12.2971 34.9496 12.2971 51.1298 12.2971C52.7876 12.2971 53.8154 13.3273 53.7491 15.0223C53.4507 24.4944 49.3394 31.8726 41.5808 37.2235C41.5145 37.29 41.415 37.3232 41.3487 37.3897C41.3487 37.3897 41.2824 37.4562 41.2493 37.4894C41.3819 37.6888 41.4814 37.8882 41.614 38.0544C43.736 41.1453 45.858 44.2694 47.9468 47.3603C49.0741 49.022 48.2121 50.9829 46.289 51.2488C45.2943 51.3817 44.5317 50.9164 43.9681 50.0856C41.8129 46.9282 39.6578 43.7376 37.5026 40.5803C37.1047 40.0042 36.5632 39.8269 35.878 40.0485C33.756 40.7797 31.6008 41.2782 29.2799 41.5109C29.2799 41.7103 29.2799 41.9097 29.2799 42.1091C29.2799 44.3026 29.2799 46.4629 29.2799 48.6564C29.2799 49.9526 28.5505 50.9164 27.4563 51.1823C25.8648 51.5479 24.5054 50.4511 24.4723 48.7229C24.4723 46.5294 24.4723 44.3691 24.4723 42.1756C24.4723 41.9762 24.4723 41.7435 24.4723 41.5109C22.2176 41.2782 20.0625 40.8129 17.9737 40.0817C16.8463 39.6829 16.8463 39.6829 16.1832 40.68C14.0612 43.8041 11.9392 46.9614 9.78409 50.0856C8.7894 51.5479 6.86635 51.6809 5.83851 50.3514C5.14223 49.4873 5.14223 48.3906 5.83851 47.3603C7.86103 44.4023 9.8504 41.4444 11.8729 38.4865C12.105 38.1541 12.304 37.855 12.5692 37.4562H12.536ZM24.4723 5.88264C24.4723 6.14853 24.4723 6.38117 24.4723 6.64706C24.5054 8.10941 25.5001 9.1397 26.8595 9.1397C28.2189 9.1397 29.2799 8.10941 29.3131 6.64706C29.3131 5.25117 29.3131 3.88853 29.3131 2.49265C29.2467 1.03029 28.2189 0 26.8595 0C25.5333 0 24.5054 1.06353 24.4723 2.49265C24.4723 3.15735 24.4723 3.85529 24.4723 4.52C24.4723 4.95206 24.4723 5.41735 24.4723 5.84941V5.88264ZM35.3806 6.81323C35.4138 8.14264 36.4748 9.17294 37.7679 9.1397C39.061 9.1397 40.122 8.10941 40.1551 6.81323C40.1883 5.28441 40.1883 3.78882 40.1551 2.26C40.122 0.997058 39.0278 0 37.7347 0C36.4416 0 35.4138 1.03029 35.3806 2.32647C35.3806 3.05765 35.3806 3.78882 35.3806 4.55323C35.3806 5.31764 35.3806 6.08206 35.3806 6.81323ZM18.3715 2.29323C18.3384 1.03029 17.3105 0 16.0506 0C14.7907 0 13.6634 0.963823 13.6302 2.26C13.597 3.82206 13.597 5.38411 13.6302 6.91294C13.6634 8.17588 14.7575 9.1397 16.0174 9.1397C17.3105 9.1397 18.3384 8.14264 18.3715 6.84647C18.3715 6.11529 18.3715 5.38411 18.3715 4.6197C18.3715 3.85529 18.3715 3.05765 18.3715 2.29323Z" fill="url(#paint0_linear_20_156)"/>
<defs>
<linearGradient id="paint0_linear_20_156" x1="0" y1="25.6356" x2="53.7522" y2="25.6356" gradientUnits="userSpaceOnUse">
<stop stop-color="#BA916C"/>
<stop offset="1" stop-color="#572A00"/>
</linearGradient>
</defs>
</svg>
