<svg width="67" height="40" viewBox="0 0 67 40" fill="none" xmlns="http://www.w3.org/2000/svg">
<path d="M0 32.7345C0 24.1428 0 15.5511 0 6.9594C0.0273374 6.87758 0.10935 6.82303 0.10935 6.7412C0.902134 2.78629 4.04593 0.0587699 8.11921 0.0314947C19.4642 0.00421949 30.8092 -0.0230557 42.1543 0.0314947C46.8016 0.0314947 50.2461 3.63182 50.2735 8.26861C50.2735 8.97777 50.2735 9.68693 50.2735 10.4779C50.5742 10.3143 50.7929 10.2052 51.0389 10.0961C55.2489 7.94131 59.4315 5.78657 63.6415 3.63182C65.063 2.92267 66.1565 3.57727 66.1565 5.15924C66.1565 14.9238 66.1565 24.661 66.1565 34.4256C66.1565 36.0621 64.7623 36.7167 63.4774 36.0348C59.3495 33.8255 55.1669 31.7253 50.9842 29.5978C50.7655 29.4887 50.5468 29.3796 50.2188 29.216C50.2188 30.007 50.2188 30.7161 50.2188 31.4253C50.2188 36.0621 46.7469 39.6624 42.0996 39.6624C30.7546 39.717 19.4095 39.6897 8.06453 39.6624C4.42866 39.6624 1.42154 37.3986 0.328049 34.0164C0.246037 33.58 0.136687 33.1709 0 32.7345Z" fill="url(#paint0_linear_20_155)"/>
<defs>
<linearGradient id="paint0_linear_20_155" x1="0" y1="19.8469" x2="66.1565" y2="19.8469" gradientUnits="userSpaceOnUse">
<stop stop-color="#BA916C"/>
<stop offset="1" stop-color="#572A00"/>
</linearGradient>
</defs>
</svg>
