<svg width="64" height="59" viewBox="0 0 64 59" fill="none" xmlns="http://www.w3.org/2000/svg">
<path d="M56.8764 43.6609C57.9556 44.757 58.5312 46.2185 58.5312 47.7165C58.5312 49.2144 57.9196 50.7124 56.8764 51.772C55.7971 52.8681 54.3581 53.4527 52.8831 53.4527C51.4082 53.4527 49.9332 52.8315 48.8899 51.772L47.7747 50.6759L39.8602 58.7139L29.2836 47.9722L30.6506 46.5838H37.4859V34.9287C39.5364 34.4172 41.3712 33.2481 42.6663 31.5674C43.9614 29.8867 44.6809 27.8041 44.6809 25.6485C44.6809 23.4929 43.9614 21.4103 42.6663 19.7296C41.3712 18.0489 39.5364 16.8433 37.4859 16.3683V12.605L39.8242 10.2302L47.7387 18.2682L49.0338 16.9529C50.1131 16.0029 51.5161 15.4914 52.9551 15.5279C54.3941 15.5645 55.7611 16.1856 56.8044 17.2086C57.8117 18.2316 58.4233 19.6565 58.4593 21.118C58.4952 22.5795 57.9916 24.0044 57.0203 25.1005L55.7611 26.3792L63.6756 34.4172L55.7611 42.4552L56.8404 43.5513L56.8764 43.6609ZM33.6006 42.6014L33.8164 31.202H35.3274C36.6944 31.0559 37.9535 30.3982 38.8889 29.3752C39.8242 28.3522 40.3279 27.0004 40.3639 25.612C40.3998 24.2236 39.9322 22.8717 39.0328 21.7757C38.1334 20.7161 36.9103 19.9854 35.5432 19.7662H33.9603L34.1762 8.29375L22.988 8.07453V6.24771C23.0959 5.44391 22.988 4.67665 22.7362 3.90939C22.4843 3.14212 22.0886 2.48447 21.585 1.86335C21.0813 1.27877 20.4338 0.803799 19.7143 0.474972C19.0667 0.182682 18.2753 0 17.5198 0C16.7643 0 15.9729 0.146145 15.2534 0.438436C14.5339 0.730727 13.8863 1.16916 13.3467 1.75374C12.8071 2.33833 12.3754 2.99598 12.1236 3.72671C11.8358 4.45743 11.7278 5.26123 11.7638 6.02849V7.85531L0.503649 7.63609L0.287799 19.072H1.83472C3.12982 19.145 4.38894 19.62 5.39624 20.4969C6.40354 21.3738 7.05109 22.5429 7.30291 23.8582C7.51876 24.1871 7.66266 24.589 7.62668 25.0274C7.62668 25.4293 7.48278 25.8312 7.23096 26.16C6.94316 27.4023 6.22366 28.5349 5.25234 29.3387C4.28102 30.1425 3.02189 30.5809 1.76277 30.6174H0.21585L0 41.9802L11.2242 42.1995V40.3727C11.3681 38.9112 12.0516 37.5594 13.1308 36.5729C14.2101 35.5864 15.6131 35.0749 17.0521 35.1114C18.4911 35.1114 19.8582 35.7325 20.9014 36.7556C21.9447 37.7786 22.5563 39.167 22.6282 40.6284V42.4552L33.6366 42.6744L33.6006 42.6014Z" fill="url(#paint0_linear_20_109)"/>
<defs>
<linearGradient id="paint0_linear_20_109" x1="0" y1="29.3569" x2="63.6756" y2="29.3569" gradientUnits="userSpaceOnUse">
<stop stop-color="#BA916C"/>
<stop offset="1" stop-color="#572A00"/>
</linearGradient>
</defs>
</svg>
