<svg width="67" height="46" viewBox="0 0 67 46" fill="none" xmlns="http://www.w3.org/2000/svg">
<path d="M66.8039 35.4679L61.2414 8.67296C60.1948 3.64714 55.8129 0 50.8198 0H16.1612C11.1681 0 6.78623 3.64714 5.7424 8.67296L0.179934 35.4679C-0.333611 37.9438 0.263664 40.488 1.82383 42.4466C3.35888 44.3768 5.63076 45.4826 8.05614 45.4826C11.3718 45.4826 14.308 43.4359 15.5053 40.3459L19.0276 32.2443C19.1448 31.9401 19.4211 31.7412 19.7281 31.7412H47.2474C47.5544 31.7412 47.8307 31.9373 47.9842 32.3239L51.4394 40.2635C52.6731 43.4359 55.6092 45.4826 58.9249 45.4826C61.3503 45.4826 63.6222 44.3768 65.1572 42.4466C66.7174 40.488 67.3175 37.9438 66.8039 35.4679ZM26.513 18.4773H23.722V21.32C23.722 22.8891 22.4717 24.1626 20.931 24.1626C19.3904 24.1626 18.14 22.8891 18.14 21.32V18.4773H15.349C13.8084 18.4773 12.558 17.2038 12.558 15.6346C12.558 14.0655 13.8084 12.792 15.349 12.792H18.14V9.94932C18.14 8.38017 19.3904 7.10665 20.931 7.10665C22.4717 7.10665 23.722 8.38017 23.722 9.94932V12.792H26.513C28.0537 12.792 29.304 14.0655 29.304 15.6346C29.304 17.2038 28.0537 18.4773 26.513 18.4773ZM46.05 22.7413C42.204 22.7413 39.0725 19.5518 39.0725 15.6346C39.0725 11.7175 42.204 8.52799 46.05 8.52799C49.896 8.52799 53.0275 11.7175 53.0275 15.6346C53.0275 19.5518 49.896 22.7413 46.05 22.7413Z" fill="url(#paint0_linear_20_162)"/>
<defs>
<linearGradient id="paint0_linear_20_162" x1="0" y1="22.7413" x2="66.9835" y2="22.7413" gradientUnits="userSpaceOnUse">
<stop stop-color="#BA916C"/>
<stop offset="1" stop-color="#572A00"/>
</linearGradient>
</defs>
</svg>
