<svg width="86" height="43" viewBox="0 0 86 43" fill="none" xmlns="http://www.w3.org/2000/svg">
<path d="M23.1729 0C24.8312 0.000277797 26.3904 0.646275 27.5625 1.81836C28.7342 2.9903 29.3799 4.54873 29.3799 6.20605V14.7061H56.0488V6.20703C56.0491 2.7854 58.8333 0.00134728 62.2549 0.000976562C63.0475 0.00112363 63.8165 0.150503 64.5322 0.432617V41.6748C63.8164 41.9568 63.0472 42.1056 62.2549 42.1055C60.5976 42.1054 59.0391 41.46 57.8672 40.2881C56.6952 39.1161 56.0491 37.558 56.0488 35.9004V27.2998H29.3799V35.8994C29.38 37.5566 28.7346 39.1149 27.5625 40.2871C26.3902 41.4594 24.8314 42.1054 23.1738 42.1055C22.381 42.1054 21.6115 41.9562 20.8955 41.6738V0.43457C21.601 0.154964 22.369 1.38364e-05 23.1729 0ZM14.6895 4.24316C15.4823 4.24293 16.2509 4.3935 16.9668 4.67578V37.4287C16.2616 37.7082 15.494 37.8641 14.6904 37.8643C13.0324 37.8641 11.4741 37.2182 10.3018 36.0459C9.12958 34.8735 8.48349 33.3155 8.4834 31.6582V27.2598H6.20605C6.19315 27.2598 6.17999 27.2591 6.16699 27.2588C4.52388 27.2488 2.98045 26.6045 1.81738 25.4414C0.645207 24.2692 -0.000277685 22.7103 0 21.0527C-0.000128147 19.3955 0.645345 17.8371 1.81738 16.665C2.98956 15.4929 4.54834 14.8469 6.20605 14.8467L8.4834 14.8477V10.4482C8.48408 7.02661 11.2682 4.24335 14.6895 4.24316ZM70.7393 4.24121C72.3968 4.24103 73.9557 4.88634 75.1279 6.05859C76.3 7.23068 76.9453 8.78992 76.9453 10.4473V14.8457L79.1807 14.8467C79.195 14.8464 79.2095 14.8458 79.2236 14.8457C80.8812 14.8463 82.4393 15.4921 83.6113 16.6641C84.7833 17.8361 85.4296 19.3944 85.4297 21.0518C85.429 24.4739 82.6442 27.2578 79.2227 27.2578H76.9453V31.6572C76.9456 33.3145 76.2999 34.8729 75.1279 36.0449C73.9558 37.2171 72.397 37.8623 70.7393 37.8623C69.9461 37.8619 69.1769 37.7122 68.4609 37.4297V4.67773C69.1667 4.39802 69.9349 4.2413 70.7393 4.24121Z" fill="url(#paint0_linear_20_110)"/>
<defs>
<linearGradient id="paint0_linear_20_110" x1="0" y1="21.0527" x2="85.4297" y2="21.0527" gradientUnits="userSpaceOnUse">
<stop stop-color="#BA916C"/>
<stop offset="1" stop-color="#572A00"/>
</linearGradient>
</defs>
</svg>
