<svg width="58" height="55" viewBox="0 0 58 55" fill="none" xmlns="http://www.w3.org/2000/svg">
<path d="M52.9455 17.1006C50.7067 16.7086 48.4376 16.407 46.1987 16.0753C44.1414 15.7738 42.0539 15.4722 39.9966 15.1707C39.2705 15.05 38.8469 14.5675 38.5443 13.9343C36.7593 10.2854 34.944 6.66677 33.159 3.01795C32.1304 1.02768 30.5269 -0.0579261 28.2578 0.00238512C26.4728 0.0626963 25.0205 0.876898 24.1734 2.47515C22.8422 4.97806 21.6018 7.54129 20.3613 10.1045C19.726 11.4012 19.0604 12.6979 18.425 14.0247C18.0922 14.7183 17.5779 15.1405 16.761 15.231C12.6767 15.8039 8.62256 16.407 4.56844 16.98C2.29935 17.3117 0.695855 18.6989 0.121018 20.9002C0.121018 20.9907 0.0302546 21.1113 0 21.2018V22.7699C0.3328 24.3983 1.39171 25.514 2.54139 26.6298C5.23404 29.193 7.86619 31.7864 10.5286 34.3798C11.1034 34.9226 11.3152 35.5257 11.1942 36.3097C10.4983 40.3204 9.83274 44.3613 9.10663 48.372C8.74358 50.4829 9.2579 52.2922 11.0429 53.5588C12.7674 54.8253 14.6432 54.8856 16.5493 53.8905C20.1496 52.0208 23.7498 50.1512 27.3199 48.2514C28.167 47.799 28.9234 47.799 29.7705 48.2514C33.3406 50.1512 36.9408 52.0208 40.5411 53.8905C43.0825 55.2173 45.8962 54.4936 47.3484 52.1716C48.2258 50.7844 48.135 49.3068 47.8628 47.7689C47.1669 43.8788 46.5013 39.9586 45.8357 36.0383C45.7147 35.3146 46.0777 34.802 46.5618 34.3496C49.4662 31.515 52.3707 28.7105 55.3054 25.8759C56.1223 25.0617 56.7273 24.157 56.9694 22.981C57.4837 20.267 55.7592 17.6434 53.0363 17.1609L52.9455 17.1006ZM33.9759 22.408C35.2466 22.408 36.3055 23.4936 36.2752 24.7601C36.2752 25.9965 35.1861 27.052 33.9456 27.0218C32.6749 26.9917 31.6765 25.9664 31.6765 24.6998C31.6765 23.4333 32.7355 22.408 33.9759 22.408ZM22.9935 22.408C24.2642 22.408 25.2928 23.4333 25.2928 24.6998C25.2928 25.9664 24.2944 26.9917 23.0237 27.0218C21.7833 27.0218 20.6941 25.9965 20.6941 24.7601C20.6941 23.4634 21.7228 22.408 22.9935 22.408ZM37.0316 34.7115C34.581 36.8525 31.7673 38.1492 27.7737 38.1492C25.7164 38.1492 23.2355 37.2747 21.0269 35.6162C20.6336 35.3146 20.2403 35.0432 19.8773 34.7115C19.1814 34.1084 19.1209 33.1736 19.6352 32.48C20.1798 31.7864 21.1177 31.6356 21.8741 32.1181C22.3884 32.4498 22.8422 32.8418 23.3565 33.2037C26.4425 35.3749 30.4059 35.3749 33.4918 33.2037C34.0062 32.8418 34.46 32.4498 34.9743 32.1181C35.7307 31.6055 36.6686 31.7562 37.2131 32.4498C37.7577 33.1434 37.6972 34.1084 37.0014 34.6813L37.0316 34.7115Z" fill="url(#paint0_linear_20_149)"/>
<defs>
<linearGradient id="paint0_linear_20_149" x1="0" y1="27.2896" x2="57.06" y2="27.2896" gradientUnits="userSpaceOnUse">
<stop stop-color="#BA916C"/>
<stop offset="1" stop-color="#572A00"/>
</linearGradient>
</defs>
</svg>
