<svg width="80" height="57" viewBox="0 0 80 57" fill="none" xmlns="http://www.w3.org/2000/svg">
<path d="M1.8728 49.2314C33.2697 39.9509 44.442 57.9146 76.4128 49.2314C76.9867 49.1396 77.517 49.2772 78.0027 49.5986V49.5527C78.4884 49.8743 78.8419 50.3803 78.9744 50.9775C79.1068 51.5748 79.0625 52.1724 78.7976 52.7236C78.5326 53.2288 78.091 53.6424 77.5613 53.8721C44.3538 62.9688 33.049 45.0049 3.10913 53.8721C2.80005 54.0099 2.49048 54.0098 2.1814 54.0098C1.82842 53.9638 1.51943 53.8721 1.25464 53.7344C0.945526 53.5506 0.724457 53.3665 0.503662 53.0908C0.282866 52.8152 0.150574 52.5394 0.0622559 52.2178C0.0180983 51.8962 -0.0258471 51.5745 0.0183105 51.2529C0.062475 50.9314 0.150289 50.6096 0.326904 50.334C0.503509 50.0124 0.724125 49.7824 0.989014 49.5986C1.25397 49.4149 1.56369 49.2774 1.8728 49.2314ZM32.0769 4.41016L31.1931 2.02148L33.4451 1.33203L33.8425 3.44531C36.6687 2.02105 39.8049 1.28613 42.9402 1.28613C47.9742 1.28625 52.8319 3.17057 56.6736 6.57031C60.5152 9.97013 63.0321 14.6562 63.8269 19.8477C64.6218 25.0393 63.6061 30.3228 61.0007 34.7793C58.8811 38.3629 55.7897 41.2111 52.1687 43.0488C59.1017 43.738 66.7856 43.5543 76.324 40.9814C76.6331 40.8896 76.9426 40.8896 77.2517 40.8896C77.5607 40.9356 77.8697 41.0282 78.1345 41.2119C78.3994 41.3957 78.6649 41.5789 78.8416 41.8545C79.0182 42.1301 79.1507 42.4059 79.239 42.7275C79.3273 43.0491 79.371 43.3708 79.3269 43.6924C79.2827 44.014 79.194 44.3357 79.0173 44.6113C78.8407 44.8869 78.6641 45.1629 78.3992 45.3467C78.1343 45.5303 77.8693 45.6679 77.5603 45.7598C44.3527 54.8566 33.048 36.8926 3.10815 45.7598C2.48993 45.9435 1.87168 45.8978 1.29761 45.5762L1.34155 45.5303C0.767587 45.2087 0.370709 44.7027 0.194092 44.0596C0.0176107 43.4166 0.061052 42.7738 0.369873 42.1768C0.678934 41.5796 1.16488 41.1653 1.78296 40.9814C12.2928 37.8573 20.5071 37.8574 28.0583 38.8223C26.5128 37.2602 25.1873 35.4229 24.1716 33.4014C21.8754 28.7151 21.2129 23.3849 22.3611 18.2852C23.5093 13.1855 26.3356 8.68273 30.3982 5.55859L27.0867 1.88379L29.5154 0L32.0769 4.41016ZM37.4636 19.8018H27.2634C26.9985 20.9963 26.866 22.1912 26.866 23.3857C26.8661 27.7961 28.5441 32.0224 31.5466 35.1465C34.5494 38.2706 38.6121 40.0166 42.8513 40.0166C47.0906 40.0166 51.1532 38.2707 54.156 35.1465C57.2028 32.0224 58.8815 27.7961 58.8816 23.3857C58.8816 22.1913 58.7491 20.9503 58.4841 19.8018H41.8357L37.4636 15.3447V19.8018ZM49.1208 27.6816C48.7676 28.9681 48.0166 30.1173 46.9568 30.9443C45.9412 31.7713 44.6604 32.1846 43.3357 32.1846C42.0551 32.1846 40.7742 31.7713 39.7585 30.9443H39.7146C38.6548 30.1173 37.9038 28.9681 37.5505 27.6816H49.1208ZM36.7566 21.3896C38.0371 21.3896 39.0533 22.4461 39.0535 23.7783C39.0535 25.1107 38.0372 26.168 36.7566 26.168C35.4762 26.1677 34.4607 25.1105 34.4607 23.7783C34.4609 22.4463 35.4763 21.3899 36.7566 21.3896ZM49.8289 21.3896C51.1093 21.3896 52.1255 22.4461 52.1257 23.7783C52.1257 25.1107 51.1095 26.168 49.8289 26.168C48.5484 26.1677 47.533 25.1106 47.533 23.7783C47.5332 22.4463 48.5486 21.3899 49.8289 21.3896Z" fill="url(#paint0_linear_20_116)"/>
<defs>
<linearGradient id="paint0_linear_20_116" x1="-0.000244141" y1="28.2612" x2="79.3441" y2="28.2612" gradientUnits="userSpaceOnUse">
<stop stop-color="#BA916C"/>
<stop offset="1" stop-color="#572A00"/>
</linearGradient>
</defs>
</svg>
