<svg width="67" height="50" viewBox="0 0 67 50" fill="none" xmlns="http://www.w3.org/2000/svg">
<path d="M0 26.323V22.6165C0.173566 21.5426 0.312419 20.4341 0.520699 19.3602C1.63152 14.1294 3.71432 9.34895 7.39393 5.39987C12.1149 0.307642 19.0229 -1.32049 25.4101 1.10439C28.6037 2.31682 31.1031 4.42992 33.3595 6.88943C35.3034 9.07182 37.1779 11.2888 39.1219 13.4712C41.4129 16.0347 44.1553 17.9053 47.6266 18.5981C50.0913 19.1177 52.4865 19.672 54.9511 20.2609C57.5893 20.8844 60.1581 21.6119 62.4492 23.0668C64.1848 24.1753 65.4692 25.5956 66.0594 27.5701C66.1982 27.9512 66.2676 28.4015 66.4065 28.7826V31.2074C66.4065 31.2074 66.3024 31.4499 66.2676 31.5885C65.8164 34.6369 64.1848 36.9232 61.7202 38.7245C59.1514 40.5605 56.2008 41.5304 53.1113 42.2233C52.6947 42.3272 52.5559 42.4658 52.5559 42.8814V48.3547C52.5559 48.5626 52.5559 48.8051 52.5559 49.0129H47.0365V43.1932C37.8028 43.7128 28.6732 43.9207 19.4394 42.9507V49.0129H13.8853V42.2925C13.8853 41.8769 13.7465 41.669 13.3299 41.5304C12.2538 41.1494 11.143 40.7683 10.0668 40.2834C5.4847 38.1356 2.18694 34.8447 0.763692 29.9603C0.485986 28.7826 0.347133 27.6048 0.0694265 26.427L0 26.323ZM52.3823 32.5584C51.9658 32.2813 51.7228 32.1081 51.4451 31.9349C45.2661 28.0551 38.6359 25.4917 31.3808 24.6949C29.055 24.4524 26.7292 24.3485 24.4034 24.8335C20.8974 25.5956 17.8426 27.2237 14.9961 29.3368C13.7117 30.3068 12.4968 31.3806 11.2124 32.3852C11.2124 32.3852 11.2818 32.4891 11.3165 32.5238C12.5662 32.212 13.7812 31.8656 15.0656 31.6231C19.613 30.5839 24.2299 29.8218 28.9509 29.9257C31.0337 29.995 33.1512 30.0643 35.1993 30.3068C38.4276 30.6185 41.6559 30.9649 44.8495 31.4153C47.3142 31.727 49.7441 32.1774 52.3823 32.5931V32.5584Z" fill="url(#paint0_linear_20_128)"/>
<defs>
<linearGradient id="paint0_linear_20_128" x1="0" y1="24.5065" x2="66.4065" y2="24.5065" gradientUnits="userSpaceOnUse">
<stop stop-color="#BA916C"/>
<stop offset="1" stop-color="#572A00"/>
</linearGradient>
</defs>
</svg>
