<svg width="52" height="51" viewBox="0 0 52 51" fill="none" xmlns="http://www.w3.org/2000/svg">
<path d="M11.4386 47.9615C15.4468 38.2534 20.7533 29.2899 26.8502 20.7126C21.8824 23.0017 17.8178 26.3665 14.233 30.3656C10.5918 34.3922 8.27725 39.1084 6.47075 44.183C5.20056 42.9144 4.15619 41.5905 3.25294 40.1288C0.910147 36.3504 -0.218911 32.2134 0.0351273 27.773C0.373845 21.7606 2.97068 16.7687 7.48691 12.7145C14.233 6.64691 22.1647 2.92363 31.0842 1.13095C36.5319 0.0553327 42.0361 -0.220466 47.5685 0.165652C49.008 0.275971 50.4475 0.49661 52 0.662089C51.8589 0.993046 51.746 1.21368 51.6331 1.43432C49.3749 6.09531 47.512 10.8942 46.637 15.9689C46.1571 18.6993 45.9595 21.4849 45.7055 24.2428C45.4515 27.0008 45.395 29.7864 44.9998 32.5444C44.4635 36.2676 42.6288 39.4393 40.2578 42.3904C37.294 46.086 33.6528 48.8165 28.9672 50.1127C23.0961 51.7399 17.4508 51.1056 12.0314 48.4028C11.862 48.32 11.6644 48.2097 11.4951 48.0994C11.4668 48.0994 11.4386 48.0442 11.3822 47.9615H11.4386Z" fill="url(#paint0_linear_129_1273)"/>
<defs>
<linearGradient id="paint0_linear_129_1273" x1="31.713" y1="0.197135" x2="-2.60323" y2="42.3772" gradientUnits="userSpaceOnUse">
<stop stop-color="#BA916C"/>
<stop offset="1" stop-color="#572A00"/>
</linearGradient>
</defs>
</svg>
