<svg width="62" height="62" viewBox="0 0 62 62" fill="none" xmlns="http://www.w3.org/2000/svg">
<path d="M5.14086 61.2211H0C0 60.9763 0 60.6907 0 60.4459C0 45.6354 0 30.784 0 15.9734C0 15.3614 0.244803 15.1166 0.734409 14.8718C10.4857 9.97572 20.237 5.07966 29.9884 0.183602C30.4372 -0.0612008 30.8044 -0.0612008 31.294 0.183602C41.0861 5.12046 50.8782 9.97572 60.7112 14.8718C61.16 15.1166 61.364 15.3614 61.364 15.9326V61.2211H56.2231V22.9503H5.14086V61.2211ZM51.1638 60.6499C51.1638 56.6515 51.1638 52.6122 51.1638 48.6138C51.1638 46.8186 50.5926 45.1049 49.6134 43.5953C48.8382 42.3305 48.0222 41.1065 47.1246 39.8417C48.3078 39.3929 49.491 38.9441 50.6334 38.4545C50.8374 38.3321 51.1638 38.0873 51.1638 37.9241C51.1638 37.1897 51.1638 36.4552 51.1638 35.6392H45.411C45.0846 34.3744 44.799 33.1096 44.4725 31.8856C43.9013 29.6008 41.9021 27.9687 39.5357 27.9687H21.9507C19.5026 27.9687 17.5442 29.56 16.9322 31.8856C16.6058 33.1096 16.2794 34.3336 15.953 35.5984H10.2001C10.2001 36.292 10.2409 36.9041 10.2001 37.5161C10.2001 38.0057 10.3633 38.2097 10.8121 38.3729C11.9545 38.7809 13.097 39.2705 14.2802 39.7601C13.4642 40.9841 12.689 42.1673 11.9137 43.2689C10.7713 44.9417 10.2409 46.8186 10.2409 48.8178V61.0987H15.3818C15.8306 58.9771 16.2386 56.8963 16.6466 54.7747H44.7174C45.1662 56.9371 45.5742 59.0179 45.9822 61.1395H51.123C51.123 61.1395 51.123 60.7723 51.123 60.5683L51.1638 60.6499ZM39.6581 33.1504C40.0253 34.7824 40.4333 36.4144 40.8005 38.1281H20.6451C21.0123 36.4552 21.3795 34.8232 21.7467 33.1504H39.6581Z" fill="url(#paint0_linear_20_135)"/>
<defs>
<linearGradient id="paint0_linear_20_135" x1="0" y1="30.6106" x2="61.364" y2="30.6106" gradientUnits="userSpaceOnUse">
<stop stop-color="#BA916C"/>
<stop offset="1" stop-color="#572A00"/>
</linearGradient>
</defs>
</svg>
