<svg width="75" height="55" viewBox="0 0 75 55" fill="none" xmlns="http://www.w3.org/2000/svg">
<path d="M21.79 47.0625C21.7996 47.0625 21.9908 47.0641 22.0879 47.1123C22.1874 47.1123 22.3868 47.1621 22.4863 47.1621H23.4316C23.4427 47.1621 23.9318 47.1627 24.1777 47.2607C24.4762 47.3103 24.725 47.261 25.0234 47.3105C25.2224 47.3105 25.471 47.311 25.7197 47.4102C25.8192 47.4597 26.0187 47.4094 26.168 47.459C26.4664 47.459 26.7152 47.4594 27.0137 47.5586H27.3125C27.6108 47.5586 27.8598 47.5591 28.1084 47.6582H28.4062C28.6053 47.6582 28.8049 47.6576 29.0039 47.7568C29.1033 47.8062 29.2026 47.7569 29.3516 47.7568C29.5506 47.7568 29.7004 47.7573 29.8496 47.8564C29.9491 47.9057 30.1476 47.8565 30.2471 47.8564C30.4461 47.8564 30.5959 47.8559 30.7451 47.9551C30.8446 48.0045 30.9935 47.9555 31.1426 48.0049C31.2918 48.0049 31.4416 48.0053 31.5908 48.1045C31.6408 48.1535 31.7894 48.1046 31.8887 48.1045C32.0877 48.1045 32.2873 48.1039 32.4863 48.2031C32.5857 48.2526 32.685 48.2032 32.834 48.2031C32.9832 48.2031 33.1329 48.2035 33.2324 48.3027C33.2823 48.3521 33.4318 48.3027 33.5312 48.3027C33.6803 48.3027 33.8295 48.3024 33.9785 48.4014C34.0283 48.451 34.1778 48.4014 34.2773 48.4014C34.4265 48.4014 34.5755 48.4019 34.7246 48.501H34.7744C35.1227 48.501 35.5209 48.6496 35.8691 48.6992C35.9686 48.6992 36.0684 48.6994 36.1182 48.749H36.2178C36.5659 48.7986 36.9145 48.8481 37.2129 48.9473C37.3123 48.9474 37.4612 48.9964 37.5605 49.0459H37.8096C38.0084 49.0459 38.1575 49.0465 38.3066 49.1455H38.5059C38.7049 49.1455 38.8547 49.1459 39.0039 49.2451H39.2021C39.4012 49.2451 39.551 49.2446 39.75 49.3438C39.8494 49.3932 39.9982 49.3439 40.0977 49.3438C40.1972 49.3438 40.297 49.3442 40.4463 49.4434C40.5458 49.4929 40.6457 49.4932 40.7949 49.4932C40.9937 49.4932 41.1429 49.4927 41.292 49.5918C41.3915 49.6414 41.4914 49.5918 41.6406 49.5918C41.7898 49.5918 41.9387 49.5923 42.0879 49.6914C42.1874 49.741 42.337 49.6906 42.4365 49.7402C42.6353 49.7402 42.7845 49.7408 42.9336 49.8398C42.9833 49.8894 43.1329 49.8398 43.2324 49.8398C43.4314 49.8398 43.6301 49.8403 43.7793 49.9395H43.9287C44.2271 49.9395 44.4262 49.939 44.6748 50.0381C45.1226 50.0381 45.521 50.1867 45.9688 50.2363C46.1677 50.2363 46.3665 50.2368 46.5654 50.3359C46.6649 50.3855 46.8644 50.3359 47.0137 50.3359C47.2623 50.3359 47.5111 50.3354 47.7598 50.4346C47.9089 50.4841 48.1076 50.435 48.2568 50.4844C48.5056 50.4844 48.7551 50.4848 49.0039 50.584C49.153 50.6333 49.3021 50.584 49.4512 50.584H50.1973C50.6946 50.6831 51.2916 50.6826 51.7891 50.6826C52.1372 50.6826 52.4857 50.7327 52.7842 50.7822H58.0586C58.0749 50.7804 58.5108 50.7313 58.7549 50.6826C59.2523 50.6826 59.7995 50.6834 60.2969 50.6338C60.3964 50.6338 60.5461 50.584 60.6953 50.584C60.7949 50.584 60.9934 50.5836 61.0928 50.5342H61.5908C61.6049 50.5341 61.9921 50.5319 62.1875 50.4346C62.3863 50.3851 62.5853 50.4352 62.7842 50.3857C62.9832 50.3857 63.2327 50.3853 63.4814 50.2861H63.7793C64.028 50.2861 64.2767 50.2857 64.5254 50.1865C64.6249 50.1369 64.7745 50.1865 64.874 50.1865C65.0729 50.1865 65.2221 50.1869 65.4209 50.0879H65.7197C65.9187 50.0879 66.0677 50.0874 66.2666 49.9883C66.3661 49.9387 66.5157 49.9883 66.6152 49.9883C66.7645 49.9883 66.9142 49.9888 67.0635 49.8896C67.1628 49.8403 67.262 49.8896 67.3613 49.8896C67.5106 49.8896 67.6603 49.8892 67.8096 49.79C67.8595 49.7409 68.0081 49.7899 68.1074 49.79C68.2567 49.79 68.4064 49.7905 68.5557 49.6914C68.6054 49.6418 68.755 49.6914 68.8545 49.6914C69.0036 49.6914 69.1526 49.6909 69.3018 49.5918C69.6002 49.5918 69.8988 49.4432 70.1973 49.3936C70.2968 49.3936 70.3966 49.3435 70.5459 49.2939H70.6953C70.8941 49.2939 71.0433 49.2449 71.1924 49.1953C71.4909 49.0961 71.7894 49.0962 72.0879 48.9971C72.4361 48.8979 72.7846 48.8979 73.1826 48.9971C73.481 49.0467 73.7298 49.1952 73.9785 49.3936C74.1774 49.5423 74.3264 49.7409 74.4756 49.8896C74.5751 49.9888 74.6251 50.1872 74.6748 50.3359C74.6748 50.3855 74.6751 50.4348 74.7744 50.4844V51.2783L74.5752 51.377H74.4756C74.4756 51.377 74.3768 51.774 74.2773 51.9229C74.2276 52.0715 74.078 52.1704 73.9785 52.2695C73.7796 52.4678 73.6302 52.6661 73.2822 52.7158C73.1827 52.8646 72.9833 52.8156 72.8838 52.8652C72.6848 52.9643 72.4362 52.9644 72.2373 53.0635C72.0383 53.1131 71.8885 53.1125 71.7393 53.1621C71.4906 53.2612 71.2419 53.2622 71.043 53.3613C70.8442 53.4108 70.695 53.4105 70.5459 53.46C70.2973 53.5591 69.9987 53.5592 69.75 53.6582C69.551 53.7078 69.4012 53.7578 69.2021 53.7578C69.1028 53.7578 69.0526 53.7581 68.9531 53.8076C68.9033 53.8079 68.8046 53.8562 68.7549 53.8564C68.5559 53.8564 68.3562 53.9065 68.1572 53.9561C67.8091 54.0552 67.4605 54.0551 67.1123 54.1543C67.0126 54.1545 66.8142 54.2044 66.7148 54.2539H66.416C66.2171 54.2539 65.9684 54.2535 65.7695 54.3525C65.67 54.4021 65.5204 54.3525 65.4209 54.3525C65.222 54.3525 65.0231 54.353 64.8242 54.4521C64.7248 54.5016 64.5261 54.4523 64.377 54.4521C64.178 54.4521 63.9286 54.4516 63.7793 54.5508H62.9336C62.9322 54.5511 62.7339 54.601 62.6348 54.6504H61.8389C61.8255 54.6504 61.3883 54.6523 61.1924 54.75H59.998C59.984 54.75 59.5465 54.7511 59.3018 54.8486H52.0879C52.0807 54.8476 51.7388 54.799 51.5908 54.75H50.0479C49.8988 54.7499 49.7498 54.6999 49.6504 54.6504H48.6553C48.6553 54.6504 48.2578 54.6499 48.1084 54.5508H47.2617C47.249 54.5507 46.9617 54.549 46.8643 54.4521H46.1182C46.1182 54.4521 45.9188 54.4021 45.8193 54.3525C45.7696 54.3525 45.6699 54.3523 45.6201 54.3027H45.123C45.123 54.3027 44.9237 54.2539 44.8242 54.2539C44.7249 54.2539 44.576 54.2043 44.4766 54.2041C44.2776 54.2041 44.1277 54.2037 43.9287 54.1045H43.7295C43.4809 54.1045 43.232 54.105 42.9834 54.0059C42.6352 53.9067 42.2368 53.9068 41.8389 53.8076C41.7394 53.8075 41.5906 53.7575 41.4912 53.708C41.3917 53.708 41.2421 53.7078 41.1426 53.6582C40.9935 53.6582 40.8444 53.6585 40.6953 53.5596C40.5958 53.51 40.4959 53.5594 40.3467 53.5098C40.2472 53.5097 40.0975 53.4597 39.998 53.4102C39.8988 53.4102 39.7993 53.4108 39.6504 53.3613C39.5509 53.3613 39.4013 53.3609 39.3018 53.2617C39.2519 53.2124 39.1033 53.2613 39.0039 53.2119C38.8049 53.2119 38.6551 53.2125 38.4561 53.1133C38.4064 53.0638 38.2577 53.1131 38.1582 53.1133C38.0587 53.1133 37.9091 53.1129 37.8096 53.0137C37.7598 52.9641 37.6102 53.0137 37.5107 53.0137C37.312 53.0137 37.1628 53.014 37.0137 52.915C36.9142 52.8654 36.7645 52.915 36.665 52.915C36.5655 52.915 36.3673 52.9144 36.3174 52.8154H36.1182C35.9192 52.8154 35.7196 52.815 35.5703 52.7158H35.4707C35.4537 52.7139 35.0193 52.6658 34.8242 52.6172C34.476 52.518 34.1274 52.5181 33.7295 52.4189C33.6302 52.4188 33.5309 52.3692 33.4316 52.3691H33.3818C33.0336 52.3195 32.6851 52.2701 32.2871 52.1709C32.1876 52.1709 31.9882 52.1209 31.8887 52.0713H31.541C31.3918 52.0713 31.242 52.0718 31.0928 51.9727C30.9933 51.9232 30.8444 51.9723 30.6953 51.9229C30.5461 51.9229 30.3465 51.9224 30.1973 51.8232C30.0979 51.774 29.949 51.8231 29.8496 51.8232C29.6506 51.8232 29.5008 51.8238 29.3516 51.7246C29.2522 51.6751 29.1529 51.7245 29.0039 51.7246C28.8049 51.7246 28.5555 51.7242 28.4062 51.625C28.3067 51.5757 28.1081 51.625 27.959 51.625C27.76 51.625 27.6101 51.6256 27.4111 51.5264H26.6152C26.6051 51.5263 26.3156 51.5241 26.2178 51.4268H25.4219C25.4219 51.4268 25.0731 51.3777 24.9238 51.3281H23.8291C22.884 51.1299 21.8894 51.2776 20.9443 51.1289C19.7007 51.0297 18.5063 51.0801 17.2627 51.0801C16.4667 51.2289 15.6202 51.0797 14.8242 51.2285C14.3268 51.2781 13.7298 51.2282 13.2324 51.377C12.7847 51.4761 12.3863 51.4766 11.9883 51.4766H11.8896C11.8896 51.4766 11.4412 51.5752 11.2422 51.5752C11.0434 51.5752 10.8943 51.5757 10.7451 51.6748C10.6456 51.7244 10.496 51.6748 10.3965 51.6748C10.1976 51.6748 9.99874 51.6753 9.7998 51.7744C9.7003 51.8239 9.55065 51.7744 9.45117 51.7744C9.30211 51.7744 9.15315 51.7741 9.05371 51.873C8.95421 51.9226 8.85438 51.8733 8.75488 51.9229C8.55612 51.9229 8.40689 51.9226 8.25781 52.0215H8.20801C7.85989 52.0215 7.61085 52.1708 7.3125 52.1709C7.16332 52.1709 7.01356 52.1705 6.91406 52.2695H6.86426C6.56577 52.3191 6.26723 52.3696 5.96875 52.4688C5.86929 52.4688 5.76938 52.5176 5.66992 52.5176C5.5708 52.5176 5.52107 52.518 5.42188 52.5674C5.32237 52.5674 5.17274 52.6174 5.07324 52.667H5.02344L4.17773 52.8652C4.17416 52.8652 4.07715 52.8664 4.02832 52.915C3.97848 52.9152 3.87876 52.9642 3.8291 53.0137C3.72944 53.0137 3.53098 53.0143 3.43164 53.1133C3.43164 53.1133 3.33198 53.1133 3.28223 53.1133C3.1331 53.1133 2.93434 53.113 2.78516 53.2119C2.68565 53.2615 2.58578 53.2119 2.43652 53.2119C2.38678 53.2119 2.33679 53.1621 2.2373 53.1621C1.93893 53.1621 1.73997 53.063 1.54102 52.9639C1.3918 52.9142 1.24205 52.7662 1.14258 52.667C0.993482 52.5678 0.844585 52.3694 0.745117 52.2207C0.645713 52.0721 0.546094 51.923 0.545898 51.7744H0.296875C0.0481252 51.3281 0.198236 50.9309 0.198242 50.5342C0.297651 50.3854 0.346836 50.1868 0.446289 50.0381C0.595543 49.7405 0.844947 49.5419 1.04395 49.2939C1.24288 49.0958 1.49174 48.947 1.79004 48.8975C2.03871 48.8479 2.28747 48.7488 2.53613 48.6992H2.73535C2.83472 48.6991 2.93398 48.6491 3.08301 48.5996H3.23242C3.38167 48.5996 3.53141 48.6002 3.68066 48.501H3.87891C3.97841 48.501 4.07823 48.451 4.17773 48.4014H4.32715C4.52595 48.4014 4.67511 48.4017 4.82422 48.3027H5.02344C5.17269 48.3027 5.32243 48.3023 5.47168 48.2031C5.52162 48.154 5.67019 48.203 5.76953 48.2031C5.91871 48.2031 6.06847 48.2035 6.16797 48.1045C6.21772 48.0549 6.36729 48.1045 6.4668 48.1045C6.56628 48.1045 6.71509 48.1039 6.81445 48.0049C6.8642 47.9553 6.96397 48.0049 7.06348 48.0049C7.26242 48.0049 7.4114 48.0044 7.61035 47.9053H7.70996C7.70996 47.9053 8.15741 47.8562 8.40625 47.8066C8.80423 47.7075 9.25241 47.7076 9.65039 47.6084C9.74989 47.6084 9.89952 47.5586 9.99902 47.5586H10.0986C10.596 47.509 11.0935 47.4595 11.5908 47.3604C11.7897 47.3603 11.9388 47.3103 12.1377 47.2607H12.4863C12.8346 47.2607 13.1831 47.2613 13.5811 47.1621H14.9238C14.9238 47.1621 15.2228 47.1121 15.3721 47.0625H21.79ZM21.4424 36.4502C21.4424 36.4502 21.8898 36.5002 22.1387 36.5498H23.1338C23.482 36.5498 23.7806 36.5503 24.0791 36.6494C24.3279 36.699 24.5774 36.6487 24.8262 36.6982C25.1244 36.6982 25.3237 36.6987 25.6221 36.7979C25.7713 36.8472 25.9701 36.7979 26.1689 36.7979C26.3678 36.7979 26.5668 36.8469 26.7656 36.8965H27.3135C27.5123 36.8965 27.6615 36.897 27.8604 36.9961C28.0096 37.0457 28.1593 36.9963 28.3086 37.0459C28.5073 37.0459 28.6566 37.0455 28.8057 37.1445C28.9052 37.1941 29.1047 37.1447 29.2539 37.1943C29.403 37.1943 29.552 37.1948 29.7012 37.2939C29.8007 37.3435 29.9006 37.2932 30.0498 37.3428C30.2487 37.3428 30.4476 37.3433 30.6465 37.4424C30.746 37.492 30.9455 37.4424 31.0947 37.4424C31.1942 37.4424 31.343 37.4429 31.4424 37.542C31.4922 37.5914 31.6418 37.542 31.7412 37.542C31.9401 37.542 32.139 37.5416 32.3379 37.6406C32.4374 37.6902 32.5871 37.6406 32.7363 37.6406C32.8358 37.6406 32.9846 37.6412 33.084 37.7402C33.1337 37.7898 33.2833 37.7404 33.3828 37.79C33.5817 37.79 33.7308 37.7897 33.8799 37.8887H33.9795C33.9795 37.8887 34.4279 37.8891 34.5771 37.9883C34.9253 37.9884 35.2739 38.1369 35.6221 38.1865C35.7215 38.1867 35.8704 38.2357 35.9697 38.2852H36.1689C36.3679 38.2852 36.6164 38.2857 36.7656 38.3848H36.9648C36.9648 38.3848 37.3126 38.3845 37.5117 38.4834H37.7109C37.9099 38.4834 38.0598 38.4838 38.2588 38.583C38.3581 38.6324 38.4575 38.5831 38.6064 38.583C38.7059 38.583 38.8556 38.5834 38.9551 38.6826C39.0051 38.7318 39.1546 38.6819 39.2539 38.7314C39.403 38.7314 39.5521 38.732 39.7012 38.8311C39.7509 38.8806 39.9005 38.8311 40 38.8311C40.1492 38.8311 40.2981 38.8315 40.4473 38.9307C40.5468 38.9802 40.6466 38.9307 40.7461 38.9307C40.9449 38.9307 41.094 38.9303 41.2432 39.0293C41.2929 39.0789 41.4425 39.0293 41.542 39.0293C41.6912 39.0293 41.841 39.0297 41.9902 39.1289C42.0895 39.178 42.1889 39.1285 42.2881 39.1777C42.4871 39.1777 42.6369 39.1782 42.7861 39.2773H42.8359C43.2337 39.2774 43.5818 39.426 43.9795 39.4756C44.1785 39.4756 44.3283 39.5256 44.4775 39.5752H44.7754C44.9744 39.5752 45.2239 39.5746 45.4727 39.6738H45.6709C45.9694 39.6738 46.1693 39.6743 46.4678 39.7734C46.6169 39.8228 46.766 39.7735 46.915 39.7734C47.1139 39.7734 47.3627 39.773 47.6113 39.8721C47.7108 39.9217 47.8605 39.8721 47.96 39.8721C48.2584 39.8721 48.6068 39.8725 48.9053 39.9717C49.1042 40.0212 49.3528 39.9717 49.5518 39.9717C49.8502 39.9717 50.099 39.9721 50.3975 40.0713H52.1387C52.2879 40.0713 52.4875 40.1203 52.6367 40.1699H58.0596C58.0674 40.1699 58.2599 40.1686 58.3574 40.1201C58.4569 40.1201 58.5568 40.0713 58.6562 40.0713H60.1982C60.2977 40.0713 60.3976 40.0215 60.4971 40.0215C60.5966 40.0215 60.6964 40.0213 60.7959 39.9717H61.4922C61.497 39.9717 61.8414 39.9705 62.0391 39.8721C62.2381 39.8225 62.388 39.8728 62.6367 39.8232C62.8854 39.8232 63.1341 39.8228 63.333 39.7236H63.6318C63.8805 39.7236 64.1293 39.7232 64.3779 39.624H64.4277C64.8753 39.624 65.3228 39.4754 65.7207 39.4258C65.8202 39.4258 65.9201 39.3767 66.0693 39.3271H66.1191C66.4674 39.2776 66.8657 39.2281 67.2637 39.1289C67.363 39.1288 67.4624 39.0788 67.6113 39.0293H67.8105C68.0094 39.0293 68.2084 39.0296 68.4072 38.9307C68.457 38.8811 68.6066 38.9307 68.7061 38.9307C68.8553 38.9307 69.005 38.9302 69.1045 38.8311H69.3525C69.452 38.8311 69.6515 38.8306 69.751 38.7314C69.8009 38.6824 69.9495 38.7313 70.0488 38.7314C70.1483 38.7314 70.3476 38.7318 70.3975 38.6328C70.6959 38.6328 70.9447 38.4842 71.2432 38.4346C71.3427 38.4346 71.4424 38.4344 71.4922 38.3848H71.542C71.8902 38.3352 72.1889 38.2356 72.5371 38.2852C72.8355 38.2852 73.0843 38.3842 73.333 38.4834C73.6812 38.6322 73.93 38.93 74.1787 39.2275C74.328 39.4259 74.4775 39.5753 74.4775 39.8232C74.4823 39.8278 74.5292 39.8718 74.5762 39.8721V41.2119C74.5688 41.212 74.4779 41.2135 74.4775 41.2607C74.4775 41.3599 74.3779 41.4596 74.3779 41.6084C74.2784 41.9059 74.0291 42.0548 73.8301 42.3027C73.6311 42.5009 73.3826 42.5505 73.2334 42.6992H73.1338C73.1286 42.6992 72.835 42.7006 72.7363 42.7988H72.6367C72.6367 42.7988 72.2879 42.7983 72.1387 42.8975H72.0391C72.0281 42.8975 71.6897 42.8995 71.5918 42.9971C71.5918 42.9971 71.4921 42.9971 71.3926 42.9971C71.2433 42.9971 71.0936 42.9965 70.9443 43.0957H70.8955C70.5972 43.1453 70.2983 43.1949 70 43.2939C69.9005 43.2939 69.8006 43.3437 69.7012 43.3438H69.6514C69.3031 43.3933 69.0045 43.4428 68.6562 43.542C68.5567 43.542 68.4071 43.592 68.2578 43.6416H68.0596C67.8606 43.6416 67.6609 43.641 67.4619 43.7402H67.1641C67.0148 43.7402 66.8153 43.7407 66.666 43.8398H66.4668C66.2182 43.8398 65.9693 43.8403 65.7207 43.9395C65.5715 43.9888 65.3727 43.9395 65.2236 43.9395C65.0744 43.9395 64.9247 43.9389 64.8252 44.0381H64.0791C64.0758 44.0389 63.8789 44.0885 63.7803 44.1377C63.7304 44.1377 63.6316 44.138 63.582 44.1875H63.084C63.0749 44.1875 62.7343 44.1884 62.5869 44.2861H61.6914C61.6914 44.2861 61.3426 44.2866 61.1436 44.3857H60.2979C59.9497 44.3857 59.6012 44.3852 59.3027 44.4844C59.0541 44.5339 58.8053 44.5342 58.5566 44.5342H52.4873C52.139 44.5342 51.7907 44.5338 51.4922 44.4346C51.2933 44.385 51.144 44.4345 50.8955 44.4346H50.0498C50.0498 44.4346 49.701 44.3855 49.502 44.3359H48.5068C48.4957 44.3343 48.1566 44.2851 48.0098 44.2363H47.2139C47.2139 44.2363 46.9647 44.1873 46.8652 44.1377H46.0693C46.0676 44.1377 45.8199 44.1369 45.7207 44.0381H45.0244C45.0173 44.0381 44.7751 44.0368 44.6768 43.9395C44.5773 43.8899 44.4773 43.9392 44.3281 43.8896C44.1292 43.8896 43.9304 43.8891 43.7314 43.79C43.632 43.7405 43.5321 43.79 43.4326 43.79C43.2338 43.79 42.9852 43.7903 42.8359 43.6914H42.7861C42.4877 43.6914 42.1891 43.6411 41.8906 43.542C41.4926 43.4428 41.0445 43.4429 40.6465 43.3438C40.348 43.2942 39.9997 43.1951 39.7012 43.1455H39.4521C39.4412 43.1455 39.1514 43.144 39.0049 43.0469C38.9054 42.9973 38.8056 43.0469 38.7061 43.0469C38.5569 43.0469 38.4079 43.0462 38.2588 42.9473H38.0596C37.8606 42.9473 37.7107 42.9468 37.5117 42.8477C37.4121 42.7985 37.2134 42.8476 37.0645 42.8477C36.965 42.8477 36.8651 42.7986 36.7158 42.749C36.6165 42.749 36.5173 42.7486 36.418 42.6992C36.219 42.6992 36.0692 42.6988 35.9199 42.5996C35.8699 42.5506 35.7213 42.5995 35.6221 42.5996C35.4728 42.5996 35.3231 42.6001 35.2236 42.501C35.1739 42.4514 35.0243 42.5008 34.9248 42.4512C34.7757 42.4512 34.5768 42.4515 34.4277 42.3525C34.378 42.3029 34.2284 42.3525 34.1289 42.3525C33.9797 42.3525 33.781 42.352 33.6318 42.2529C33.6318 42.2529 33.5322 42.2529 33.4824 42.2529C33.2835 42.2529 33.0349 42.2029 32.8359 42.1533C32.4877 42.0541 32.1392 42.0542 31.791 41.9551C31.6915 41.9551 31.4921 41.906 31.3926 41.8564H31.0947C30.8957 41.8564 30.6961 41.856 30.4971 41.7568H30.2979C30.2812 41.7568 29.7971 41.7557 29.6016 41.6582H29.3037C29.1047 41.6582 28.9549 41.6578 28.8057 41.5586C28.7062 41.5091 28.5076 41.5582 28.3584 41.5088C28.2092 41.5088 28.0096 41.5093 27.8604 41.4102C27.7609 41.3606 27.612 41.4097 27.4629 41.3604C27.2639 41.3604 27.0145 41.3599 26.8652 41.2607H25.9697C25.9612 41.2586 25.7693 41.2105 25.6719 41.1621H24.875C24.8612 41.1621 24.5241 41.1596 24.3779 41.0625H23.5322C23.5322 41.0625 23.035 41.0629 22.7861 40.9639H20.5967C20.1492 40.9638 19.7513 40.8643 19.3535 40.8643C18.458 40.8643 17.6113 40.8147 16.7158 40.8643C15.9199 40.9138 15.0742 40.9143 14.2783 40.9639C14.1293 40.9639 13.9803 41.013 13.8809 41.0625H12.9355C12.9355 41.0625 12.5867 41.0629 12.3877 41.1621H11.542C11.5343 41.164 11.3418 41.2122 11.2441 41.2607C11.1944 41.2607 11.0947 41.2611 11.0449 41.3105H10.5469C10.539 41.3125 10.3482 41.3601 10.2988 41.3604C10.1993 41.3604 10.0497 41.4101 9.9502 41.4102C9.75131 41.4102 9.50266 41.4098 9.30371 41.5088H9.10449C9.10449 41.5088 8.65712 41.5093 8.45801 41.6084H8.25879C8.05978 41.6084 7.86019 41.6078 7.71094 41.707H7.6123C7.6123 41.707 7.21365 41.757 7.01465 41.8066C6.71619 41.9058 6.36771 41.9057 6.01953 42.0049C5.96973 42.0049 5.87099 42.0054 5.82129 42.0547C5.72192 42.0547 5.62208 42.1044 5.57227 42.1045C5.42301 42.1045 5.27328 42.1039 5.12402 42.2031H4.92578C4.77653 42.2031 4.62685 42.2035 4.52734 42.3027C4.52734 42.3027 4.42768 42.3027 4.37793 42.3027C4.22885 42.3027 4.07974 42.3025 3.93066 42.4014C3.93066 42.4014 3.83089 42.4014 3.73145 42.4014C3.63194 42.4014 3.53212 42.4018 3.43262 42.501C3.42809 42.501 3.33055 42.5024 3.2334 42.5508C3.13384 42.5508 2.93538 42.5506 2.83594 42.6494H2.73633C2.73633 42.6494 2.28909 42.65 2.13965 42.749H1.94043C1.94043 42.749 1.59164 42.699 1.44238 42.6494C1.39283 42.6492 1.3431 42.6002 1.24414 42.5508C1.24414 42.5508 1.19422 42.5504 1.14453 42.501C0.846056 42.501 0.696113 42.3028 0.546875 42.1045C0.447376 42.0053 0.298721 41.9056 0.199219 41.7568C0.0997169 41.6081 0 41.4593 0 41.3105H0.149414C-0.0993407 40.8642 0.0498047 40.4673 0.0498047 40.1201C0.14918 39.922 0.199313 39.7734 0.249023 39.5752C0.398275 39.2281 0.646755 39.0294 0.895508 38.8311C0.99501 38.7319 1.09489 38.6824 1.24414 38.6328C1.4431 38.5337 1.69171 38.4343 1.89062 38.3848H2.08984C2.18935 38.3848 2.33811 38.3842 2.4375 38.2852H2.4873C2.78573 38.2356 2.98483 38.186 3.2832 38.0869C3.5816 37.9878 3.78077 37.938 4.0791 37.8389H4.22852C4.42752 37.8389 4.57731 37.8394 4.72656 37.7402H4.92578C5.02511 37.7401 5.12446 37.6901 5.27344 37.6406C5.37294 37.6406 5.47276 37.6404 5.57227 37.5908C5.72136 37.5908 5.87044 37.5911 6.01953 37.4922H6.16895C6.36795 37.4922 6.51779 37.4918 6.7168 37.3926C6.76686 37.3436 6.91538 37.3925 7.01465 37.3926C7.11414 37.3926 7.31357 37.3931 7.41309 37.2939C7.46277 37.2444 7.61144 37.2938 7.71094 37.2939C7.90994 37.2939 8.05973 37.2935 8.20898 37.1943C8.25885 37.1449 8.40839 37.1943 8.50781 37.1943C8.70664 37.1943 8.90566 37.1948 9.10449 37.0957C9.20385 37.0462 9.4023 37.0956 9.50195 37.0957C9.65121 37.0957 9.85075 37.0953 10 36.9961C10.0994 36.9466 10.2981 36.9463 10.4473 36.9463C10.6463 36.9463 10.8459 36.9468 11.0449 36.8477H11.2441C11.5921 36.8476 11.9401 36.7976 12.2881 36.748C13.0344 36.6489 13.7811 36.649 14.5273 36.5498C14.8756 36.5498 15.224 36.5494 15.5225 36.4502H21.4424ZM50.6973 0C50.7016 0.00108895 50.8977 0.0488281 50.9961 0.0488281C51.0457 0.0490134 51.0953 0.0984739 51.1943 0.0986328C51.3436 0.0986328 51.4933 0.0990568 51.6426 0.198242H51.8418C51.9412 0.198242 52.0411 0.197762 52.0908 0.296875C52.1016 0.302227 52.3926 0.44644 52.5879 0.495117C52.6874 0.495166 52.8868 0.643775 52.9863 0.693359C53.1852 0.7925 53.3342 0.89207 53.4834 0.991211C53.8317 1.18958 54.1301 1.4876 54.3789 1.78516C54.528 1.98328 54.7266 2.13199 54.8262 2.33008C54.9256 2.52838 55.125 2.67744 55.1748 2.82617C55.3241 3.07414 55.4737 3.27254 55.5732 3.52051C55.6727 3.71885 55.672 3.86805 55.7715 4.06641C55.7715 4.07214 55.7734 4.16456 55.8213 4.16504C55.8213 4.16504 55.8711 4.21506 55.8711 4.26465C55.8712 4.61172 56.0703 4.86015 56.0703 5.25684C56.0704 5.45484 56.1202 5.60339 56.1699 5.75195V6.64453C56.1699 6.84282 56.12 6.99191 56.0703 7.14062C56.0703 7.339 56.0702 7.48794 55.9707 7.63672C55.9707 7.63672 55.9707 7.78516 55.9707 7.83496C55.9707 7.93415 55.9208 8.03363 55.8711 8.13281V8.23145C55.8711 8.47941 55.7225 8.67858 55.5732 8.87695C55.5235 8.97608 55.4735 9.12449 55.4238 9.22363C55.2248 9.57074 55.0261 9.91829 54.7773 10.2158C54.5784 10.4142 54.4285 10.6122 54.2793 10.8105C54.1302 10.9592 53.9314 11.0585 53.7822 11.207C53.4838 11.5045 53.1352 11.7031 52.7871 11.9014C52.4887 12.0005 52.2895 12.1994 51.9414 12.249C51.7424 12.3978 51.493 12.3483 51.2939 12.4971H51.0957C50.9963 12.4971 50.8468 12.4968 50.7969 12.5957C50.7969 12.5957 50.747 12.5957 50.6973 12.5957C50.548 12.5957 50.3983 12.5961 50.2988 12.6953H50.1504C50.0509 12.6953 49.9013 12.6957 49.8018 12.7949C49.5531 12.7949 49.3542 12.9436 49.1055 12.9932C49.006 12.9932 48.9061 13.0422 48.8066 13.0918H48.7568C48.5579 13.0919 48.3591 13.1916 48.1602 13.2412C47.8617 13.3404 47.5631 13.4389 47.2646 13.5381C47.016 13.6372 46.7672 13.6373 46.5186 13.7363C46.2698 13.8355 46.0202 13.786 45.7715 13.9844H45.5732C45.4737 13.9844 45.3739 13.9848 45.2744 14.084C44.976 14.084 44.777 14.2326 44.5283 14.2822C44.4288 14.2822 44.329 14.2827 44.2295 14.3818H44.1299C43.9807 14.3818 43.7821 14.3816 43.6826 14.5303C43.3843 14.5303 43.1851 14.6789 42.9365 14.7285C42.8868 14.7285 42.8368 14.7288 42.7373 14.7783C42.6379 14.7783 42.5381 14.8274 42.4883 14.877C42.3888 14.877 42.2889 14.927 42.1895 14.9766H42.041C41.8918 14.9766 41.7421 15.0266 41.6426 15.0762C41.4436 15.1752 41.1452 15.1753 40.9463 15.2744C40.6479 15.3736 40.4488 15.4729 40.1504 15.5225H39.9512C39.9503 15.5227 39.9303 15.5269 39.9004 15.5352C39.9988 15.6795 40.1142 15.8244 40.1504 15.9688C40.2499 16.1669 40.3986 16.3653 40.498 16.5635C40.5975 16.7618 40.7472 16.9104 40.8467 17.1582C40.9462 17.2574 40.9961 17.4565 41.0459 17.5557C41.0956 17.6546 41.1456 17.7046 41.1953 17.8037C41.4937 18.2498 41.7426 18.6464 42.041 19.043C42.1405 19.2412 42.2396 19.4892 42.3887 19.6875C42.4882 19.8859 42.6378 20.0348 42.7373 20.1836C42.7871 20.2828 42.837 20.3823 42.9365 20.4814C43.1353 20.7292 43.2347 20.9771 43.3838 21.2744C43.4833 21.4728 43.6828 21.7208 43.832 21.9688C44.031 22.2663 44.1799 22.5645 44.3789 22.8125C44.5281 23.0108 44.6281 23.2585 44.7275 23.4072C44.827 23.6055 44.926 23.7546 45.0752 23.9033C45.1747 24.1017 45.3244 24.3495 45.4736 24.5479C45.5731 24.7462 45.7218 24.8954 45.8213 25.0938C45.9207 25.292 46.0704 25.4405 46.1699 25.6387C46.2694 25.837 46.4191 26.036 46.5186 26.2344C46.618 26.4326 46.7668 26.6309 46.8662 26.8291C46.9657 27.0274 47.1155 27.2255 47.2646 27.4238C47.3144 27.523 47.3643 27.5729 47.4141 27.7217C47.5134 27.5235 47.4638 27.4241 47.4141 27.2754L47.3643 27.1768C47.3643 26.9785 47.2648 26.8294 47.2646 26.6807C47.1652 26.3336 47.1648 25.9864 47.0654 25.5898C47.0654 25.3419 47.0156 25.0936 46.9658 24.8457C46.9658 24.4987 46.9162 24.1019 46.9658 23.7549C47.0156 23.507 46.9659 23.2586 47.0156 23.0107C47.0156 22.862 47.0158 22.7132 47.1152 22.5645C47.1152 22.5645 47.1152 22.4653 47.1152 22.3662C47.1152 22.1678 47.1153 21.9691 47.2148 21.8203V21.6719C47.2148 21.6719 47.215 21.4236 47.3145 21.374C47.3145 21.374 47.3145 21.2753 47.3145 21.2256C47.3145 21.1264 47.3146 21.0269 47.4141 20.9277C47.4141 20.6302 47.6124 20.4316 47.7119 20.1836C47.8114 19.8861 47.9611 19.6874 48.0605 19.4395C48.1601 19.1916 48.3586 18.9434 48.5078 18.7451C48.8063 18.398 49.0062 18.0014 49.3545 17.6543C49.7026 17.3073 50.1002 16.9105 50.498 16.5635C50.7468 16.3651 50.9954 16.2159 51.2441 16.0176C51.4431 15.8688 51.6926 15.8197 51.8916 15.6709C52.1403 15.5717 52.3392 15.3728 52.5879 15.3232C52.7867 15.2242 52.9358 15.2241 53.085 15.125C53.284 15.0258 53.5334 14.9761 53.7324 14.877H53.9307C54.0301 14.877 54.1301 14.8279 54.2793 14.7783H54.5781C54.7273 14.7783 54.926 14.7778 55.0752 14.6787H57.9609C57.9609 14.6787 58.1603 14.7287 58.2598 14.7783C58.3591 14.7783 58.4583 14.7786 58.5576 14.8281C58.7069 14.8281 58.9064 14.8276 59.0059 14.9268C59.2048 14.9268 59.4533 15.0266 59.6025 15.0762C59.8511 15.1257 60.0503 15.2241 60.2988 15.3232C60.3983 15.3728 60.548 15.4231 60.6475 15.4727C60.8961 15.5718 61.1449 15.6707 61.3936 15.8193C61.5926 15.9185 61.7424 16.0678 61.9414 16.167C62.1402 16.2662 62.2894 16.4641 62.4883 16.5137C62.6872 16.6128 62.8363 16.8112 63.0352 16.96C63.4829 17.3071 63.8813 17.8037 64.2793 18.25C64.4782 18.4484 64.5774 18.746 64.7764 18.9443C64.9256 19.1427 65.0256 19.3407 65.1748 19.5391C65.2245 19.6382 65.2746 19.7866 65.374 19.8857C65.4735 20.0345 65.4737 20.2338 65.5732 20.333C65.6229 20.4319 65.6718 20.5309 65.6719 20.6299C65.7216 20.8282 65.8213 20.9772 65.8711 21.126C65.9208 21.3739 65.9708 21.5724 66.0703 21.8203C66.0703 21.9195 66.1202 22.019 66.1699 22.1182V22.415C66.1699 22.6134 66.17 22.862 66.2695 23.0107V25.3418C66.2695 25.3516 66.2681 25.542 66.2197 25.6387V25.8369C66.2197 26.1841 66.12 26.5318 66.0205 26.8789C66.0204 27.0773 65.871 27.3251 65.8213 27.5234C65.7716 27.7217 65.7225 27.8708 65.623 28.0195C65.5733 28.2179 65.4735 28.3668 65.374 28.5156C65.3244 28.6149 65.3737 28.8127 65.1748 28.8623C65.1251 29.2093 64.827 29.4575 64.6777 29.7549C64.1802 30.3996 63.6819 31.0443 63.0352 31.5898C62.8362 31.7386 62.6872 31.9372 62.4883 32.0859C62.3888 32.1851 62.289 32.185 62.1895 32.2842C61.9905 32.4329 61.7917 32.5817 61.5928 32.7305C61.2943 32.9288 60.946 33.0282 60.6475 33.2266C60.4983 33.3257 60.2996 33.326 60.1504 33.4746C60.1504 33.4746 60.0508 33.4746 60.001 33.4746C59.9512 33.4746 59.8515 33.4748 59.8018 33.5244C59.752 33.5244 59.6523 33.5735 59.6025 33.623C59.5032 33.6231 59.453 33.6731 59.3535 33.7227C59.0553 33.7229 58.856 33.9209 58.5576 33.9209C58.4085 33.9209 58.2595 33.9214 58.1104 34.0205H55.2744C55.2744 34.0205 55.0751 34.0201 54.9756 33.9209C54.8762 33.8715 54.7769 33.9205 54.6279 33.8711C54.4787 33.8711 54.329 33.8716 54.2295 33.7725C54.0305 33.7724 53.782 33.7222 53.583 33.623C53.4835 33.5735 53.2842 33.6235 53.2344 33.5244C53.0356 33.5243 52.8864 33.4253 52.7373 33.3262C52.5881 33.3262 52.4383 33.2271 52.2891 33.1279C52.1896 33.0784 52.0407 32.979 51.8916 32.8799C51.5932 32.7312 51.3443 32.5821 51.0459 32.3838C50.7474 32.1854 50.4987 32.036 50.25 31.7881C50.0012 31.5897 49.8015 31.3421 49.6025 31.1934C49.5987 31.1933 49.5506 31.1911 49.5029 31.1436C49.4532 31.2427 49.5029 31.342 49.5029 31.3916C49.7019 31.6891 49.8518 31.9864 50.0508 32.2344C50.2995 32.6311 50.5481 33.0281 50.7969 33.4248C50.9461 33.6727 51.095 33.8713 51.2441 34.1191C51.3436 34.2679 51.4435 34.4665 51.543 34.6152C51.6424 34.8135 51.8419 35.0117 51.9414 35.21C52.0409 35.4083 52.2394 35.6073 52.3389 35.8057C52.3886 35.9048 52.4386 36.0037 52.4883 36.1523C52.2396 36.2515 51.9909 36.1524 51.7422 36.1523C51.6427 36.1523 51.4931 36.1025 51.3936 36.1025H50.5479C50.2494 36.1025 50.0007 36.1031 49.752 36.0039C49.6525 35.9544 49.4539 36.0038 49.3047 36.0039H48.5078C48.2094 35.8553 47.9107 35.9043 47.6123 35.9043C47.513 35.9042 47.4136 35.8552 47.2646 35.8057H46.4688C46.4688 35.8057 46.2196 35.8052 46.1201 35.7061C46.0702 35.6567 45.9207 35.7058 45.8213 35.6562C45.6224 35.6562 45.3736 35.6567 45.125 35.5576C44.9758 35.5081 44.7771 35.5576 44.6279 35.5576C44.4787 35.5576 44.329 35.5572 44.2295 35.458C44.1796 35.4089 44.031 35.4579 43.9316 35.458C43.7326 35.458 43.533 35.4585 43.3838 35.3594H43.334C42.9362 35.3593 42.5384 35.2108 42.1406 35.1611C42.0411 35.1611 41.9412 35.1111 41.792 35.0615H41.7422C41.3939 35.0119 41.0455 34.9625 40.6475 34.8633C40.548 34.8632 40.3993 34.8132 40.2998 34.7637H40.1006C39.9016 34.7637 39.7517 34.7642 39.5527 34.665H39.3545C39.1555 34.665 39.0057 34.6646 38.8564 34.5654C38.7571 34.516 38.6577 34.5653 38.5088 34.5654C38.4094 34.5654 38.2597 34.5164 38.1602 34.4668H37.8613C37.6625 34.4668 37.5134 34.4663 37.3643 34.3672H37.1152C36.9661 34.3672 36.7673 34.3674 36.6182 34.2686C36.5684 34.219 36.4188 34.2685 36.3193 34.2686C36.1701 34.2686 36.0203 34.2681 35.8711 34.1689C35.7717 34.1196 35.6725 34.1686 35.5234 34.1191C35.3742 34.1191 35.2245 34.1196 35.125 34.0205H35.0752C34.727 34.0204 34.3784 33.8709 34.0303 33.8213C33.8812 33.8213 33.7321 33.8217 33.583 33.7227H33.5332C33.185 33.6731 32.8365 33.6236 32.4883 33.5244C32.3888 33.5244 32.1903 33.4743 32.0908 33.4248H31.8916C31.6928 33.4248 31.444 33.4251 31.2451 33.3262H30.9463C30.7473 33.3262 30.5974 33.3257 30.3984 33.2266C30.2988 33.1773 30.1002 33.2266 29.9512 33.2266C29.8021 33.2266 29.6033 33.2268 29.4541 33.1279C29.3546 33.0783 29.1551 33.1277 29.0059 33.0781C28.8069 33.0781 28.6579 33.0776 28.459 32.9785C28.3595 32.9289 28.16 32.9785 28.0107 32.9785C27.8118 32.9785 27.5631 32.979 27.3145 32.8799C27.215 32.8303 27.0155 32.8799 26.8662 32.8799C26.6176 32.8799 26.3687 32.8794 26.1201 32.7803H25.125C25.1151 32.7783 24.8737 32.7292 24.7275 32.6807H23.5332C23.5267 32.6807 23.1339 32.6803 22.9365 32.582H20.6973C20.3988 32.582 20.1003 32.532 19.8516 32.4824C19.8485 32.4824 19.8001 32.4815 19.752 32.4336C19.8515 32.3344 19.9513 32.284 20.0508 32.2344C20.3491 32.0856 20.5981 31.888 20.8965 31.7393C21.0955 31.6401 21.2942 31.4906 21.4932 31.3418C21.7915 31.1435 22.0902 31.0446 22.3389 30.7969C22.5876 30.7969 22.7375 30.5484 22.9365 30.4492C23.1353 30.3501 23.2846 30.2512 23.4834 30.1025C23.6823 30.0034 23.8812 29.8541 24.0801 29.7549C24.2791 29.6557 24.4289 29.5074 24.6279 29.4082H24.6777C24.9761 29.309 25.1254 29.1109 25.374 29.0117C25.573 28.9126 25.7718 28.8127 25.9707 28.6641C26.1697 28.5649 26.3196 28.4166 26.5684 28.3174C26.7673 28.2182 26.9661 28.1185 27.165 27.9697C27.3638 27.8706 27.6124 27.7222 27.7617 27.623C27.911 27.5239 28.1106 27.4242 28.3096 27.2754C28.5084 27.1763 28.6577 27.0773 28.8564 26.9287C29.0553 26.8296 29.304 26.6312 29.5029 26.4824C29.6024 26.4328 29.7023 26.3824 29.8018 26.2832C29.9012 26.2336 29.9012 26.0857 29.8018 26.0361C29.7023 25.9369 29.6522 25.8375 29.5527 25.7383C29.503 25.6391 29.454 25.5394 29.3545 25.3906C29.2551 25.1924 29.155 25.0442 29.0059 24.8955C28.9064 24.6971 28.7567 24.4982 28.6572 24.2998C28.5578 24.1016 28.4089 23.9033 28.2598 23.7051C28.1603 23.5067 28.0604 23.3077 27.9111 23.1094C27.8117 22.9112 27.6629 22.7128 27.5635 22.5146C27.464 22.3163 27.3143 22.1671 27.2148 21.9688C27.1154 21.7705 27.0155 21.6221 26.916 21.4238C26.8165 21.2255 26.618 20.9774 26.4688 20.7295C26.3692 20.5311 26.1698 20.3322 26.0703 20.1338C25.8714 19.8364 25.7224 19.5386 25.5732 19.2412C25.4737 19.0429 25.3241 18.8939 25.2246 18.7451C25.1252 18.5469 25.026 18.3486 24.877 18.1504C24.7775 17.952 24.6776 17.8031 24.5283 17.6543C24.4288 17.4561 24.2792 17.3076 24.1797 17.1094C24.0802 16.911 23.9315 16.6622 23.832 16.4639C23.7822 16.3648 23.6825 16.2658 23.6328 16.1172C23.5333 15.8197 23.4334 15.5224 23.2842 15.2744C23.1847 15.0761 23.1355 14.8279 23.0361 14.5801C22.9864 14.2827 22.8868 13.9849 22.8867 13.6875V11.6045C22.8867 11.6045 22.9366 11.356 22.9863 11.2568C22.9863 11.1578 22.9864 11.1079 23.0361 11.0088C23.0361 10.86 23.0363 10.6616 23.1357 10.5625C23.1358 10.2651 23.2842 10.0665 23.334 9.86816C23.3342 9.71949 23.4835 9.5703 23.5332 9.37207C23.5829 9.27289 23.6329 9.12446 23.6826 9.02539C23.7821 8.82703 23.882 8.57922 24.0312 8.38086C24.1805 8.13292 24.3791 7.88466 24.5781 7.63672C24.7273 7.4385 24.926 7.24021 25.0752 7.04199C25.2742 6.84362 25.424 6.69468 25.623 6.5459C25.8718 6.34755 26.1204 6.19857 26.3691 6.0498C26.568 5.95067 26.7173 5.8023 26.9658 5.70312C27.1151 5.60394 27.2648 5.5535 27.4141 5.50391C27.5134 5.50377 27.6126 5.40508 27.7119 5.35547C27.8113 5.35547 27.9113 5.30638 28.0107 5.25684H28.3096C28.3129 5.25572 28.6088 5.15675 28.8066 5.10742C29.0056 4.90909 29.3039 5.05757 29.5029 4.85938H29.8018C29.8018 4.85938 30.0509 4.76074 30.1504 4.76074C30.2498 4.76074 30.3986 4.76011 30.498 4.66113C30.5478 4.66113 30.5978 4.66092 30.6973 4.61133C30.7968 4.61133 30.9464 4.61187 31.0459 4.5127H31.0957C31.1075 4.51034 31.5953 4.41242 31.792 4.31445C32.0407 4.26488 32.2396 4.16556 32.4883 4.06641H32.6875C32.787 4.06639 32.9366 4.01638 33.0361 3.9668H33.2344C33.3338 3.9668 33.4338 3.91773 33.5332 3.86816C33.583 3.86816 33.6329 3.86795 33.7324 3.81836C33.8318 3.81836 33.9309 3.81775 34.0303 3.71875C34.0303 3.71875 34.1299 3.71854 34.1797 3.66895C34.3289 3.66895 34.4786 3.6695 34.5781 3.57031H34.7275C34.8269 3.57031 34.926 3.56976 35.0254 3.4707C35.0254 3.4707 35.1249 3.47114 35.1748 3.42188C35.2743 3.42188 35.4737 3.42145 35.5234 3.32227C35.7721 3.3222 35.9711 3.17362 36.2197 3.12402C36.3192 3.12402 36.3692 3.07422 36.4189 3.07422C36.4221 3.07417 36.4705 3.07236 36.5186 3.02441C36.7173 3.02437 36.8665 2.97533 37.0156 2.92578C37.1649 2.8266 37.3644 2.82596 37.5137 2.77637C37.6627 2.77629 37.8119 2.72727 37.9609 2.67773C38.1598 2.5786 38.4086 2.57851 38.6572 2.47949C38.7069 2.47949 38.8066 2.42978 38.8564 2.42969C38.9062 2.42969 38.9562 2.37988 39.0557 2.37988C39.1552 2.37988 39.3048 2.38041 39.4043 2.28125H39.5527C39.6522 2.28125 39.8516 2.2808 39.9014 2.18164H40.001C40.0079 2.18163 40.3001 2.18002 40.3984 2.08203H40.5479C40.6473 2.08203 40.8467 2.0825 40.8965 1.9834H41.0459C41.1455 1.9834 41.3439 1.98288 41.4434 1.88379H41.5928C41.5928 1.88379 41.8417 1.88419 41.8916 1.78516H41.9912C42.0013 1.78348 42.2918 1.73427 42.4385 1.68555C42.6374 1.58641 42.8861 1.58635 43.1348 1.4873C43.3835 1.43771 43.6331 1.33844 43.8818 1.23926H44.0801C44.1795 1.23926 44.2795 1.19018 44.3789 1.14062H44.5781C44.6775 1.14056 44.8263 1.09052 44.9258 1.04102H45.125C45.2245 1.04102 45.3243 1.04059 45.4238 0.941406C45.7223 0.941366 45.9212 0.79275 46.1699 0.743164C46.2694 0.743164 46.3692 0.743564 46.4189 0.644531C46.7173 0.644458 46.9164 0.495876 47.165 0.446289C47.2645 0.446289 47.3644 0.445848 47.4639 0.34668C47.4789 0.34367 47.9651 0.246082 48.21 0.148438C48.3093 0.14837 48.4085 0.0983458 48.5078 0.0488281C48.6073 0.0488281 48.7072 4.37917e-05 48.8066 0H50.6973ZM49.6523 31.0938C49.6523 31.0938 49.6525 31.1438 49.7021 31.1934C49.7021 31.1934 49.7021 31.0938 49.6523 31.0938Z" fill="url(#paint0_linear_20_123)"/>
<defs>
<linearGradient id="paint0_linear_20_123" x1="0" y1="27.4243" x2="74.7744" y2="27.4243" gradientUnits="userSpaceOnUse">
<stop stop-color="#BA916C"/>
<stop offset="1" stop-color="#572A00"/>
</linearGradient>
</defs>
</svg>
