<svg width="59" height="59" viewBox="0 0 59 59" fill="none" xmlns="http://www.w3.org/2000/svg">
<path d="M32.831 52.3623V57.2402C32.8308 58.0936 32.1395 58.7841 31.2861 58.7842H29.457C28.6035 58.7842 27.9122 58.0937 27.912 57.2402V52.3623H32.831ZM27.0185 0.701172C29.0916 -0.233725 31.4493 -0.233752 33.5224 0.701172C39.3353 3.38408 51.2451 9.64371 54.6191 17.3262C55.1069 18.4644 54.2936 19.6846 53.0742 19.6846H43.8476V19.6025L40.2294 14.9277C39.8229 14.3588 39.0094 14.2375 38.4404 14.6846C37.9123 15.0911 37.7904 15.9037 38.2372 16.4727L40.6767 19.6436H32.791V42.6104H54.0097C55.9607 42.6105 57.5868 44.1958 57.5869 46.1875C57.5869 48.1792 55.9608 49.7645 54.0097 49.7646H53.4814L57.9521 54.2363C58.9277 55.2526 58.9276 56.8779 57.9521 57.8535C57.4643 58.3819 56.8144 58.6259 56.164 58.626C55.5136 58.626 54.8227 58.3413 54.3349 57.8535L46.2861 49.8057H16.8554L8.76654 57.8535C8.27884 58.3819 7.62872 58.6259 6.97845 58.626C6.32806 58.626 5.67719 58.3413 5.18939 57.8535C4.17348 56.8373 4.17339 55.2525 5.18939 54.2363L11.4902 47.8945L0.758728 34.2363C-0.460575 32.6917 -0.176502 30.4558 1.3681 29.2363C2.95343 28.0168 5.18964 28.302 6.40912 29.8467L11.165 35.9033L12.0995 37.041L15.5546 41.4727L16.4492 42.6104H27.913V19.6436H19.9863L22.4247 16.4727C22.8312 15.9036 22.7497 15.1317 22.1806 14.6846C21.6116 14.2782 20.8397 14.359 20.3925 14.9277L16.7744 19.6025V19.6846H7.54681C6.32753 19.6843 5.51512 18.4236 6.00287 17.3262C9.37701 9.60296 21.287 3.34334 27.0185 0.701172Z" fill="url(#paint0_linear_20_129)"/>
<defs>
<linearGradient id="paint0_linear_20_129" x1="-6.10352e-05" y1="29.3921" x2="58.6837" y2="29.3921" gradientUnits="userSpaceOnUse">
<stop stop-color="#BA916C"/>
<stop offset="1" stop-color="#572A00"/>
</linearGradient>
</defs>
</svg>
