<svg width="70" height="56" viewBox="0 0 70 56" fill="none" xmlns="http://www.w3.org/2000/svg">
<path d="M49.0976 47.2037L45.7602 41.8308C49.2627 46.1778 55.7437 46.3938 59.5273 42.3751C62.9821 38.7057 62.8057 32.9431 59.1317 29.4917C55.4596 26.042 49.6892 26.2169 46.2337 29.887C43.5791 32.7066 43.0976 36.7156 44.5922 39.9504L36.5192 26.9537L48.4993 23.5006C52.2199 22.4283 53.9782 18.1744 52.0878 14.7909C50.7152 12.3343 47.8664 11.1631 45.1605 11.9432L27.0233 17.1709C22.3208 18.5265 20.2149 23.9867 22.797 28.1439L28.279 36.9691L18.6648 42.9277C30.2313 43.1932 38.5884 46.7108 49.0976 47.2037Z" fill="url(#paint0_linear_20_158)"/>
<path d="M2.59207 53.1898C28.885 45.7242 38.815 60.7959 67.9428 53.2014C69.0303 52.9179 69.6817 51.8073 69.3979 50.7211C69.114 49.635 68.0022 48.9843 66.9148 49.2677C38.9304 56.5645 28.9867 41.4687 1.47915 49.2792C0.398113 49.5862 -0.229237 50.7104 0.0780613 51.7904C0.385495 52.8704 1.51144 53.4968 2.59207 53.1898Z" fill="url(#paint1_linear_20_158)"/>
<path d="M13.4218 0C14.9526 0 16.2548 0.977499 16.7369 2.34167C16.8031 2.33961 16.8696 2.33857 16.9363 2.33857C19.375 2.33857 21.438 3.72652 22.1221 5.63683C22.646 5.15127 23.3476 4.85438 24.1187 4.85438C25.7403 4.85438 27.0549 6.16746 27.0549 7.78723C27.0549 9.407 25.7403 10.7201 24.1187 10.7201C23.0759 10.7201 22.16 10.1771 21.6391 9.35869C20.7013 10.7599 18.9465 11.7029 16.9363 11.7029C15.1044 11.7029 13.4845 10.9197 12.5018 9.7202C11.8273 10.9043 10.5525 11.7029 9.09106 11.7029C6.92524 11.7029 5.16949 9.94911 5.16949 7.78576C5.16949 5.62242 6.92524 3.86868 9.09106 3.86868C9.38104 3.86868 9.66366 3.90011 9.9357 3.95976C9.9169 3.81269 9.90721 3.66278 9.90721 3.51061C9.90721 1.57176 11.4808 0 13.4218 0Z" fill="url(#paint2_linear_20_158)"/>
<defs>
<linearGradient id="paint0_linear_20_158" x1="0" y1="27.703" x2="69.4643" y2="27.703" gradientUnits="userSpaceOnUse">
<stop stop-color="#BA916C"/>
<stop offset="1" stop-color="#572A00"/>
</linearGradient>
<linearGradient id="paint1_linear_20_158" x1="0" y1="27.703" x2="69.4643" y2="27.703" gradientUnits="userSpaceOnUse">
<stop stop-color="#BA916C"/>
<stop offset="1" stop-color="#572A00"/>
</linearGradient>
<linearGradient id="paint2_linear_20_158" x1="0" y1="27.703" x2="69.4643" y2="27.703" gradientUnits="userSpaceOnUse">
<stop stop-color="#BA916C"/>
<stop offset="1" stop-color="#572A00"/>
</linearGradient>
</defs>
</svg>
