<svg width="62" height="60" viewBox="0 0 62 60" fill="none" xmlns="http://www.w3.org/2000/svg">
<path d="M28.831 58.2559C28.8307 59.0051 28.2239 59.6122 27.4745 59.6123H25.8681C25.1186 59.6123 24.512 59.0052 24.5117 58.2559V53.9717H28.831V58.2559ZM23.7265 8.60449C25.547 7.78347 27.6179 7.78348 29.4384 8.60449C34.5431 10.9605 45.0018 16.4584 47.9648 23.2051C48.393 24.2045 47.6792 25.2754 46.6083 25.2754H38.5058V25.2041L35.3281 21.0986C34.971 20.5992 34.2574 20.4923 33.7578 20.8848C33.2939 21.2417 33.1867 21.9554 33.579 22.4551L35.7206 25.2402H28.7958V45.4092H47.4296C49.1431 45.4092 50.5712 46.8016 50.5712 48.5508C50.5708 50.2996 49.1429 51.6914 47.4296 51.6914H46.9658L50.8925 55.6182C51.7491 56.5106 51.7492 57.9392 50.8925 58.7959C50.4642 59.2598 49.8923 59.4736 49.3212 59.4736C48.7505 59.4735 48.144 59.2238 47.7158 58.7959L40.6474 51.7275H14.8027L7.69818 58.7959C7.26987 59.2596 6.69879 59.4736 6.12787 59.4736C5.55695 59.4736 4.98586 59.2239 4.55756 58.7959C3.66516 57.9035 3.66525 56.5106 4.55756 55.6182L10.0908 50.0498L0.665955 38.0557C-0.404935 36.6992 -0.154307 34.735 1.20209 33.6641C2.59426 32.5936 4.55707 32.8439 5.62787 34.2002L9.80463 39.5186L10.6259 40.5186L13.6601 44.4092L14.4453 45.4092H24.5117V25.2402H17.5507L19.6933 22.4551C20.0498 21.9554 19.9779 21.2773 19.4785 20.8848C18.9788 20.528 18.3008 20.5992 17.9081 21.0986L14.7314 25.2041V25.2754H6.62787C5.55702 25.2754 4.84325 24.1689 5.27142 23.2051C8.2344 16.4227 18.6932 10.9248 23.7265 8.60449ZM49.3671 0C50.7112 0 51.8547 0.857917 52.2783 2.05566C52.3362 2.05386 52.3946 2.05372 52.4531 2.05371C54.5947 2.05371 56.407 3.2726 57.0078 4.9502C57.4678 4.52382 58.0836 4.26274 58.7607 4.2627C60.1846 4.2627 61.3396 5.41564 61.3398 6.83789C61.3398 8.26033 60.1847 9.41406 58.7607 9.41406C57.845 9.414 57.0404 8.93731 56.5829 8.21875C55.7593 9.44901 54.2181 10.2773 52.4531 10.2773C50.8447 10.2772 49.4224 9.58921 48.5595 8.53613C47.9672 9.57579 46.8476 10.2772 45.5644 10.2773C43.6624 10.2773 42.1201 8.73672 42.1201 6.83691C42.1201 4.93716 43.6624 3.39746 45.5644 3.39746C45.8189 3.39749 46.0668 3.42519 46.3056 3.47754C46.2891 3.3485 46.2802 3.21652 46.2802 3.08301C46.2802 1.38035 47.6625 9.70562e-06 49.3671 0Z" fill="url(#paint0_linear_20_173)"/>
<defs>
<linearGradient id="paint0_linear_20_173" x1="0.000116263" y1="33.8004" x2="56.2565" y2="33.8004" gradientUnits="userSpaceOnUse">
<stop stop-color="#BA916C"/>
<stop offset="1" stop-color="#572A00"/>
</linearGradient>
</defs>
</svg>
