<svg width="55" height="55" viewBox="0 0 55 55" fill="none" xmlns="http://www.w3.org/2000/svg">
<path d="M53.3943 52.1359H52.17V3.70429C52.17 1.65511 50.5113 0 48.4577 0C46.4041 0 44.7454 1.65511 44.7454 3.70429V4.92591H9.87321V3.70429C9.87321 1.65511 8.21451 0 6.16088 0C4.10726 0 2.44856 1.65511 2.44856 3.70429V52.0965H1.22428C0.5529 52.0965 0 52.6482 0 53.3181C0 53.988 0.5529 54.5397 1.22428 54.5397H11.1765C11.8479 54.5397 12.4008 53.988 12.4008 53.3181C12.4008 52.6482 11.8479 52.0965 11.1765 52.0965H9.9522V12.4133H14.9283V16.1176C14.9283 16.7875 15.4812 17.3392 16.1526 17.3392H17.3769V35.1119C16.666 35.5454 16.1526 36.2941 16.1526 37.2005C16.1526 38.1069 16.666 38.8556 17.3769 39.2891V40.9048C17.3769 41.5747 17.9298 42.1264 18.6011 42.1264C19.2725 42.1264 19.8254 41.5747 19.8254 40.9048V39.2891C20.5363 38.8556 21.0497 38.1069 21.0497 37.2005C21.0497 36.2941 20.5363 35.5454 19.8254 35.1119V17.3392H21.0497C21.7211 17.3392 22.274 16.7875 22.274 16.1176V12.4133H29.7381V53.3575C29.7381 54.0274 30.291 54.5791 30.9624 54.5791C31.6338 54.5791 32.1867 54.0274 32.1867 53.3575V49.6532H44.6269V52.1359H43.4026C42.7313 52.1359 42.1784 52.6876 42.1784 53.3575C42.1784 54.0274 42.7313 54.5791 43.4026 54.5791H53.3548C54.0262 54.5791 54.5791 54.0274 54.5791 53.3575C54.5791 52.6876 54.0262 52.1359 53.3548 52.1359H53.3943ZM44.7059 47.1705H32.2656V42.2052H44.7059V47.1705ZM44.7059 39.7226H32.2656V34.7572H44.7059V39.7226ZM44.7059 32.2746H32.2656V27.3093H44.7059V32.2746ZM44.7059 24.8266H32.2656V19.8613H44.7059V24.8266ZM44.7059 17.3786H32.2656V12.4133H44.7059V17.3786Z" fill="url(#paint0_linear_20_160)"/>
<defs>
<linearGradient id="paint0_linear_20_160" x1="0" y1="27.2896" x2="54.5791" y2="27.2896" gradientUnits="userSpaceOnUse">
<stop stop-color="#BA916C"/>
<stop offset="1" stop-color="#572A00"/>
</linearGradient>
</defs>
</svg>
