<svg width="56" height="56" viewBox="0 0 56 56" fill="none" xmlns="http://www.w3.org/2000/svg">
<path d="M16 7.99973C16 9.58193 15.5308 11.1286 14.6518 12.4441C13.7727 13.7597 12.5233 14.785 11.0615 15.3905C9.59966 15.996 7.99113 16.1544 6.43928 15.8458C4.88743 15.5371 3.46197 14.7752 2.34315 13.6564C1.22433 12.5376 0.462403 11.1122 0.153721 9.56041C-0.15496 8.00861 0.00346625 6.40013 0.608967 4.93837C1.21447 3.47661 2.23985 2.22722 3.55544 1.3482C4.87103 0.469176 6.41775 0 8 0C10.1217 0 12.1566 0.842827 13.6569 2.34307C15.1571 3.84331 16 5.87807 16 7.99973ZM14 25.9991C13.9937 28.8418 14.6009 31.6523 15.78 34.2389C15.9616 34.6503 15.9991 35.111 15.8866 35.5465C15.7741 35.9819 15.5182 36.3667 15.16 36.6388L6.16 43.3786C5.54069 43.8426 5.02836 44.4344 4.65772 45.1137C4.28709 45.793 4.06681 46.5441 4.0118 47.316C3.9568 48.0879 4.06836 48.8627 4.33893 49.5877C4.6095 50.3127 5.03274 50.9711 5.58 51.5183L8.48 54.4182C9.02719 54.9654 9.68562 55.3887 10.4107 55.6592C11.1357 55.9298 11.9105 56.0413 12.6824 55.9863C13.4543 55.9313 14.2054 55.7111 14.8848 55.3404C15.5642 54.9698 16.1559 54.4575 16.62 53.8382L23.36 44.8385C23.6321 44.4804 24.0169 44.2244 24.4524 44.1119C24.8878 43.9994 25.3485 44.037 25.76 44.2185C28.3467 45.3976 31.1573 46.0048 34 45.9985C34.9726 46.0013 35.9434 45.9142 36.9 45.7385L14.26 23.0992C14.0843 24.0558 13.9972 25.0266 14 25.9991ZM36 3.99987C30.2504 4.21875 24.8154 6.68129 20.86 10.8596C18.5882 13.0975 16.7804 15.7616 15.54 18.6994L41.3 44.4585C44.2378 43.2182 46.9021 41.4104 49.14 39.1387C53.3185 35.1834 55.7811 29.7486 56 23.9992C56 18.695 53.8929 13.6081 50.1421 9.85754C46.3914 6.10693 41.3043 3.99987 36 3.99987Z" fill="url(#paint0_linear_129_1275)"/>
<defs>
<linearGradient id="paint0_linear_129_1275" x1="34.1525" y1="0.216462" x2="-3.67041" y2="45.8127" gradientUnits="userSpaceOnUse">
<stop stop-color="#BA916C"/>
<stop offset="1" stop-color="#572A00"/>
</linearGradient>
</defs>
</svg>
