<svg width="54" height="60" viewBox="0 0 54 60" fill="none" xmlns="http://www.w3.org/2000/svg">
<path d="M53.5978 46.4819C54.1502 44.7792 53.173 42.9654 51.4157 42.4304C43.5712 40.0422 40.2401 26.4328 39.4591 21.414C39.3448 20.7034 38.966 20.014 38.966 20.014C37.5254 17.3585 32.0726 16.1194 31.4589 16.0478C30.3566 15.9193 30.2165 15.1026 30.1701 14.825C32.0958 13.5275 33.396 10.3948 33.396 7.56552C33.3958 3.38729 32.9405 0 27.0645 0C26.9857 0 26.684 0 26.6051 0C20.7289 0 20.2738 3.38729 20.2738 7.56552C20.2738 10.3948 21.5741 13.5275 23.4995 14.825C23.4531 15.1026 23.2702 15.9331 22.2107 16.0478C21.5503 16.1196 15.2906 17.5507 14.449 20.6408C14.449 20.6408 14.3455 21.0826 14.2829 21.4265C14.2745 21.4728 13.626 26.1401 11.6853 31.2099C10.0298 35.5343 7.06417 40.9912 2.33642 42.4304C0.578877 42.9654 -0.397911 44.7794 0.154307 46.4821C0.598302 47.8505 1.895 48.7292 3.29914 48.7441C0.4877 50.3105 0.0762113 52.4944 0.0762113 53.6261C0.0762113 54.0759 0.316246 55.5383 1.41315 56.8857C2.39787 58.097 4.36116 59.5408 8.11906 59.5408C8.68297 59.5408 9.27919 59.5082 9.89167 59.4445C12.3913 59.1841 14.912 58.7929 17.349 58.4148C18.2336 58.2775 19.1174 58.1406 20.0027 58.0093C21.1814 57.8338 23.3068 57.7178 26.3185 57.6642H27.351C30.3626 57.7178 32.488 57.834 33.6668 58.0093C34.552 58.1406 35.4358 58.2775 36.3204 58.4148C38.7575 58.7929 41.2781 59.1841 43.7778 59.4445C44.3904 59.5082 44.9867 59.5408 45.5504 59.5408C49.3083 59.5408 51.2716 58.0968 52.2563 56.8857C53.3532 55.5383 53.5932 54.0759 53.5932 53.6261C53.5932 52.4942 53.1817 50.3101 50.3697 48.7438C50.3854 48.744 50.401 48.7455 50.4165 48.7455C51.8347 48.7455 53.15 47.862 53.5978 46.4819ZM14.6264 46.0729C12.9344 46.5829 12.5459 46.6365 11.0986 46.8356C10.6276 46.9 10.0486 46.9798 9.28177 47.0945C8.53074 47.1719 7.84215 47.2757 7.20748 47.4006C11.5576 45.0721 15.0662 40.6331 17.6665 34.1531C17.8116 35.4156 17.9014 36.8061 17.9014 38.3349C17.9014 43.3233 15.2933 45.8717 14.6264 46.0729ZM44.3877 47.0945C43.6208 46.9798 43.0428 46.8917 42.5709 46.8356C38.0128 46.2918 35.768 43.3235 35.768 38.3351C35.768 36.7408 35.8652 35.2956 36.0213 33.9906C38.6375 40.5824 42.184 45.0859 46.5926 47.4267C45.9222 47.29 45.1904 47.1772 44.3877 47.0945Z" fill="url(#paint0_linear_20_152)"/>
<defs>
<linearGradient id="paint0_linear_20_152" x1="0" y1="29.7704" x2="53.7522" y2="29.7704" gradientUnits="userSpaceOnUse">
<stop stop-color="#BA916C"/>
<stop offset="1" stop-color="#572A00"/>
</linearGradient>
</defs>
</svg>
